<svg width="644" height="551" viewBox="0 0 644 551" fill="none" xmlns="http://www.w3.org/2000/svg">
<path opacity="0.7" d="M144.418 173.092L357.879 508.687L572.193 173.092H144.418Z" stroke="#2B2B39" stroke-linecap="round" stroke-linejoin="round" stroke-dasharray="3 3"/>
<circle cx="541.635" cy="179.857" r="96.4193" fill="white"/>
<circle cx="541.635" cy="179.857" r="95.4193" stroke="#FFAF2E" stroke-opacity="0.6" stroke-width="2"/>
<mask id="mask0_1_626" style="mask-type:alpha" maskUnits="userSpaceOnUse" x="366" y="49" width="278" height="272">
<path d="M638.055 179.857C638.055 126.606 594.887 49.2239 541.636 49.2239C492.163 49.2239 451.393 116.014 445.857 168.193C396.732 161.972 330.914 137.868 390.787 182.967C414.538 200.857 429.155 226.77 457.671 227.289C474.229 256.537 505.627 276.276 541.636 276.276C568.135 276.276 592.137 265.586 609.566 248.283L604.991 291.458C604.991 374.659 660.847 259.48 638.055 179.857Z" fill="#C4C4C4"/>
</mask>
<g mask="url(#mask0_1_626)">
<path d="M537.097 127.725C511.151 148.422 513.796 192.424 512.229 216.374C511.128 233.129 507.68 257.141 505.49 270.883L554.103 278.041V193.8C554.103 165.72 556.057 131.209 563.717 123.776C558.382 123.185 553.67 123.337 550.441 123.776C547.88 123.756 544.673 124.187 541.163 125.608C539.619 126.524 538.484 126.934 537.097 127.725Z" fill="white"/>
<path opacity="0.5" d="M537.097 127.725C511.151 148.422 513.796 192.423 512.229 216.374C511.128 233.129 507.68 257.141 505.49 270.882C523.977 277.685 532.079 279.305 554.103 278.04V193.8C554.103 172.093 555.271 146.543 559.342 132.63C554.962 139.651 548.891 173.539 549.817 193.8C550.744 214.06 550.126 253.528 544.258 264.518C538.383 275.509 508.107 267.266 510.887 258.718C513.667 250.169 513.667 222.387 516.138 190.331C518.115 164.685 530.936 137.908 537.097 127.725Z" fill="#FFB83B"/>
<path d="M544.26 264.519C538.385 275.51 508.109 267.266 510.889 258.718C517.993 269.709 534.987 266.351 537.767 262.076C540.547 257.803 544.877 247.117 544.877 229.104C544.877 214.694 548.584 187.075 550.437 175.067C549.831 181.776 549.567 188.291 549.819 193.8C550.746 214.06 550.128 253.528 544.26 264.519Z" fill="#FFF9EF"/>
<path d="M516.137 190.332C517.687 170.293 525.847 149.563 532.283 136.599C528.65 144.435 521.456 164.687 521.703 183.004C521.95 201.322 516.424 224.219 513.627 233.379C514.284 221.351 514.902 206.377 516.137 190.332Z" fill="#FFF9EF"/>
<path d="M500.689 304.208L489.873 302.682C491.524 291.382 502.975 236.186 507.721 199.856C508.754 191.931 509.827 183.639 510.916 175.08C515.123 141.93 529.685 132.157 541.159 125.608C515.213 146.305 513.792 192.424 512.225 216.374C511.124 233.13 507.676 257.141 505.486 270.883C505.171 272.855 500.942 302.71 500.689 304.208Z" fill="#FFAF2E"/>
<path d="M507.721 199.856C508.754 191.931 509.827 183.638 510.916 175.08C510.596 185.455 509.827 202.504 507.721 219.945C503.761 252.749 499.454 282.531 489.873 302.681C491.524 291.381 502.975 236.186 507.721 199.856Z" fill="#F3A00D"/>
<path d="M604.502 303.292C599.251 280.395 591.523 190.331 591.523 190.331C591.523 190.331 597.752 158.55 587.508 143.01C580.96 133.07 563.718 123.776 563.718 123.776C556.058 131.209 554.103 165.72 554.103 193.8V278.04V307.261C567.425 310.008 589.67 311.23 604.502 303.292Z" fill="#FFAF2E"/>
<path d="M557.995 138.125C555.007 152.63 554.103 174.702 554.103 193.8V265.74C555.401 255.156 557.72 227.394 556.614 201.017C555.507 174.639 557.074 148.098 557.995 138.125Z" fill="#F9A319"/>
<path d="M604.502 303.292C599.251 280.395 591.523 190.331 591.523 190.331C591.523 190.331 597.752 158.55 587.508 143.01C587.508 159.496 579.477 181.783 584.11 204.069C590.344 234.041 595.539 261.466 589.67 282.226C584.975 298.834 563.999 305.836 554.103 307.26C567.425 310.008 589.67 311.23 604.502 303.292Z" fill="#F9A319"/>
<path d="M638.793 213.534C640.646 194.605 622.113 166.823 601.103 146.063C591.758 136.829 572.68 125.913 563.716 123.776L591.522 190.331C591.522 190.331 600.159 199.856 611.15 216.374C614.553 208.941 628.908 204.07 638.793 213.534Z" fill="#FFAF2E"/>
<path d="M638.794 213.534C640.647 194.605 622.108 166.823 601.104 146.063C596.224 141.242 588.692 135.963 581.33 131.714C583.7 135.784 588.805 145.086 590.287 149.726C592.141 155.527 631.998 178.714 628.6 208.489C632.122 208.992 635.677 210.551 638.794 213.534Z" fill="#F9A319"/>
<path d="M607.844 208.486C608.428 202.722 613.92 199.36 617.812 198.399C626.562 196.238 635.306 198.879 639.681 205.364C643.5 211.019 639.198 219.294 635.307 222.416C636.037 211.608 631.909 207.765 622.912 209.207C613.92 210.647 611.247 216.171 610.764 220.975C608.574 219.294 607.114 215.691 607.844 208.486Z" fill="#F9A319"/>
<path d="M622.911 209.207C613.919 210.648 611.246 216.172 610.757 220.975C611.572 230.982 613.043 254.503 612.459 268.528C611.734 286.061 610.757 292.065 607.601 299.75C604.439 307.435 608.617 315.419 614.694 313.977C620.771 312.536 625.73 305.514 624.275 299.75C622.815 293.986 624.275 288.222 626.701 284.139C629.133 280.056 635.305 244.992 635.305 222.416C636.035 211.608 631.902 207.766 622.911 209.207Z" fill="#FFD0B7"/>
<path d="M510.919 175.08C515.126 141.93 529.688 132.157 541.162 125.608C531.57 130.715 509.942 136.599 494.166 164.344C480.766 187.908 470.584 194.115 466.4 195.216C471.455 199.896 480.21 213.969 479.373 222.998C484.815 219.034 500.411 205.73 507.723 199.856C508.757 191.931 509.83 183.639 510.919 175.08Z" fill="#FFAF2E"/>
<path d="M507.722 199.856C508.755 191.931 509.828 183.638 510.917 175.08C507.935 190.053 496.675 198.879 490.497 201.017C485.549 202.726 480.573 212.109 478.709 216.587C479.287 218.862 479.551 221.048 479.371 222.998C484.813 219.034 500.409 205.729 507.722 199.856Z" fill="#F9A319"/>
<path d="M474.629 209.89C471.17 199.202 466.093 195.878 463.925 195.521C464.65 194.809 466.57 193.163 468.951 192.521C471.922 191.72 480.307 192.521 484.093 198.668C487.299 203.872 490.854 212.295 484.093 220.578C478.684 227.205 467.059 226.546 461.92 225.388C467.598 224.676 477.746 219.509 474.629 209.89Z" fill="#F9A319"/>
<path d="M461.919 225.388C467.597 224.675 477.745 219.509 474.628 209.89C472.14 202.203 468.871 196.742 463.924 195.521C462.755 195.952 460.458 196.904 451.372 193.056C440.016 188.246 402.97 171.412 400.265 169.007C397.561 166.603 391.613 158.319 383.23 158.586C374.848 158.854 377.822 174.084 387.827 176.756C397.832 179.429 406.215 186.643 411.082 191.987C415.949 197.331 442.178 223.25 461.919 225.388Z" fill="#FFD0B7"/>
<path d="M540.902 125.62V109.045L563.715 98.131V123.776C553.544 142.511 539.976 137.742 540.902 125.62Z" fill="#FFD0B7"/>
<path d="M543.425 107.84L563.716 98.131V123.776C563.699 123.813 563.677 123.85 563.66 123.887C562.638 125.753 561.588 127.383 560.515 128.795C556.741 123.179 546.761 114.465 540.903 110.113V109.253L543.425 107.84Z" fill="url(#paint0_linear_1_626)"/>
<path d="M529.58 67.2666C529.58 76.994 534.516 78.1772 538.15 77.6639L560.367 101.539C560.626 102.052 563.114 104.169 563.114 109.164C563.114 114.229 567.146 103.717 570.134 101.539C576.323 97.0311 580.529 96.8973 582.489 89.4624C584.174 83.0803 581.798 78.5623 579.85 77.6639C578.682 77.1505 577.435 76.0467 575.565 75.7387C573.694 75.4301 573.223 72.2729 573.223 70.7323C573.093 69.5775 572.588 67.9708 569.606 66.1111C567.753 64.9563 562.962 64.4424 561.142 66.1111C559.974 66.7532 557.323 67.4209 556.077 64.9563C554.83 62.4917 552.179 63.4157 551.011 64.1854C547.585 65.4174 539.638 61.7985 536.549 52.3341C532.843 57.2189 529.58 60.577 529.58 67.2666Z" fill="#2B2B39"/>
<path d="M579.851 77.664C578.683 77.1501 577.436 76.0463 575.566 75.7383C585.203 82.8252 577.436 94.1798 571.258 97.2321C566.316 99.674 563.772 106.204 563.115 109.164C563.115 114.229 567.147 103.716 570.135 101.539C576.324 97.0307 580.53 96.8969 582.49 89.4626C584.175 83.0805 581.8 78.5619 579.851 77.664Z" fill="#13131C"/>
<path d="M551.013 64.1855C547.587 65.4175 539.641 61.798 536.552 52.3342C536.608 58.027 539.416 68.9837 550.199 67.2666C551.884 66.7089 553.849 65.599 556.096 67.8188C558.342 70.0387 564.026 64.9558 569.608 66.1112C567.755 64.9558 562.964 64.4419 561.145 66.1112C559.977 66.7527 557.326 67.4204 556.079 64.9558C554.832 62.4912 552.187 63.4152 551.013 64.1855Z" fill="#13131C"/>
<path d="M549.458 110.011C558.5 107.238 562.055 100.897 562.707 98.0735C562.97 96.9181 563.616 93.7093 563.487 92.2974C562.549 89.5248 559.719 93.4523 558.421 95.7632C556.686 98.8438 556.372 88.0614 558.421 85.3659C561.224 81.6687 556.86 80.6898 554.911 79.5898C554.002 79.0759 551.486 78.2035 548.677 78.8195C545.869 79.4355 544.392 77.7923 543.999 76.8938C542.96 75.2256 540.259 72.8892 537.765 76.8938C531.84 85.8282 532.958 97.5602 534.261 102.31C535.558 106.032 540.416 112.783 549.458 110.011Z" fill="#FFD0B7"/>
</g>
<g filter="url(#filter0_d_1_626)">
<circle cx="155.659" cy="173.246" r="97.659" fill="white"/>
<circle cx="155.659" cy="173.246" r="96.659" stroke="#217BF4" stroke-opacity="0.6" stroke-width="2"/>
</g>
<mask id="mask1_1_626" style="mask-type:alpha" maskUnits="userSpaceOnUse" x="58" y="49" width="220" height="246">
<path d="M58 173.673C58 119.738 101.723 49.3105 155.659 49.3105C285.668 45.6483 282.056 158.668 274.681 215.636H243.868C228.172 248.571 194.574 271.332 155.659 271.332C142.708 271.332 130.346 268.811 119.037 264.233C118.269 263.923 117.506 263.602 116.748 263.273C114.205 269.52 109.271 283.997 109.881 291.932C97.674 301.851 67.7536 282.624 70.2006 220.977C62.4267 206.962 58 190.835 58 173.673Z" fill="#C4C4C4"/>
</mask>
<g mask="url(#mask1_1_626)">
<path d="M267.623 193.29C261.65 195.102 254.24 197.661 248.742 196.325C244.335 195.254 244.666 193.863 244.168 190.942C245.565 188.573 251.469 184.019 262.899 181.695C277.185 178.791 278.128 190.105 267.623 193.29Z" fill="#FEBE9D"/>
<path d="M202.666 150.61C200.906 146.336 196.068 145.624 193.869 145.802C177.845 152.212 187.585 198.422 191.355 204.566C195.125 210.709 199.524 213.113 203.923 214.983C208.321 216.852 217.119 215.784 219.318 214.449C221.518 213.113 222.146 211.777 224.659 211.51C227.173 211.243 231.258 210.442 232.828 208.839C234.399 207.237 235.656 205.634 239.427 205.634C243.197 205.634 246.339 202.963 247.595 201.36C248.852 199.758 249.795 199.49 251.994 198.956C254.194 198.422 256.393 198.422 257.021 195.751C257.65 193.08 257.964 187.738 257.65 185.067C257.335 182.396 257.335 182.396 255.764 182.663C254.194 182.93 250.109 185.067 248.852 185.067C247.595 185.067 245.396 184.8 243.197 185.601C240.997 186.402 233.771 189.341 229.058 190.676C224.345 192.012 217.433 192.279 218.061 190.409C218.69 188.539 220.889 183.197 216.49 183.197C212.092 183.197 212.092 180.259 210.207 174.116C208.321 167.972 204.865 155.952 202.666 150.61Z" fill="#217BF4"/>
<path d="M249.168 196.821C250.529 196.731 253.629 196.18 255.137 194.684M250.424 188.006C251.367 187.205 253.818 185.602 256.08 185.602L250.424 188.006ZM252.624 189.342L255.137 188.273L252.624 189.342ZM249.482 193.081C250.948 192.903 254.257 192.226 255.766 190.944L249.482 193.081Z" stroke="#2068D9" stroke-width="1.07894"/>
<path d="M250.02 199.51C249.446 197.38 248.874 194.054 249.481 191.477C248.852 193.347 247.03 197.727 244.768 200.292C241.94 203.497 238.484 203.23 237.856 200.559C237.227 197.888 233.457 199.49 232.2 202.696C230.944 205.901 228.116 209.908 223.403 210.175C218.988 210.425 216.779 211.378 215.484 211.937C215.397 211.975 215.313 212.01 215.234 212.044C213.977 212.578 214.291 210.442 215.548 209.106C216.805 207.77 218.376 204.298 218.061 202.428C216.491 205.367 213.349 209.373 208.322 210.709C203.294 212.044 200.467 208.839 204.237 205.901C208.007 202.963 210.835 200.292 211.777 197.888C212.134 196.979 211.637 197.292 210.644 197.916C209.01 198.945 206.031 200.819 203.294 199.49C198.896 197.354 199.524 191.21 202.98 190.142C204.084 189.8 205.734 189.704 207.509 189.601C211.289 189.381 215.635 189.128 216.491 186.402C214.606 187.471 203.609 189.073 203.294 182.396C202.98 175.718 202.352 171.177 200.781 167.438C200.259 166.196 200.014 164.571 199.76 162.876C199.247 159.468 198.691 155.777 195.754 154.349C194.915 153.942 191.447 154.098 186.709 154.919C181.829 170.553 188.412 199.77 191.355 204.566C195.125 210.709 199.524 213.113 203.923 214.983C208.321 216.853 217.119 215.784 219.318 214.449C220.037 214.012 220.589 213.576 221.092 213.176C222.13 212.354 222.968 211.69 224.659 211.51C227.173 211.243 231.258 210.442 232.828 208.84C232.941 208.725 233.052 208.61 233.163 208.495C234.593 207.015 235.927 205.634 239.427 205.634C243.197 205.634 246.339 202.963 247.595 201.361C248.396 200.34 249.069 199.861 250.02 199.51Z" fill="#1771EA"/>
<path d="M194.4 208.641C195.962 206.906 198.614 204.467 201.095 203.764C204.866 202.695 202.98 202.161 199.838 203.23C196.697 204.298 196.068 203.496 195.754 200.024C195.44 196.552 196.697 190.408 198.582 186.134C200.467 181.861 202.98 168.506 197.639 163.431C195.182 161.096 190 161.361 185.149 163.759C183.936 179.672 188.906 200.573 191.355 204.565C192.332 206.156 193.35 207.496 194.4 208.641Z" fill="#2068D9"/>
<path d="M246.967 197.088C249.732 193.883 249.376 188.095 248.852 185.602C249.69 187.739 250.863 192.76 248.852 195.752C246.339 199.492 246.339 197.889 246.967 197.088Z" fill="#3881F2"/>
<path d="M171.249 274.28C180.549 270.647 192.928 272.41 197.955 273.746C198.584 273.905 199.212 273.746 200.468 270.006C201.725 266.267 200.783 256.918 200.468 256.117C200.154 255.316 200.154 254.782 200.468 253.446C202.039 244.631 196.07 223.53 193.556 211.778C191.043 200.025 194.499 189.074 197.955 181.061C201.411 173.047 198.583 162.631 197.641 151.946C196.698 141.262 186.016 140.461 171.563 137.522C157.11 134.585 138.573 134.584 130.403 152.213C122.234 169.842 129.775 192.813 130.403 205.901C131.032 218.99 124.748 230.208 120.663 241.694C116.579 253.179 117.522 261.726 116.265 269.205C115.259 275.188 117.312 277.753 118.464 278.287C118.569 279.622 118.778 283.201 118.778 286.834C118.778 291.375 120.663 293.779 125.376 293.512C130.089 293.245 137.63 290.574 144.228 286.3C150.826 282.026 159.623 278.821 171.249 274.28Z" fill="#217BF4"/>
<path d="M171.563 223.797C163.017 230.208 152.502 228.961 148.313 227.536C148.313 228.694 150.324 231.596 158.367 233.947C168.421 236.885 175.333 230.208 178.161 224.866C180.423 220.592 185.387 214.538 187.587 212.045C185.806 213.291 180.109 217.387 171.563 223.797Z" fill="#3881F2"/>
<path d="M197.955 273.745C192.928 272.41 180.549 270.647 171.248 274.28C169.973 274.778 168.73 275.26 167.521 275.73C157.718 279.537 150.102 282.495 144.228 286.3C137.63 290.573 130.089 293.244 125.376 293.512C120.663 293.779 118.778 291.375 118.778 286.834C118.778 283.201 118.569 279.622 118.464 278.286C117.312 277.752 115.259 275.188 116.265 269.205C116.668 266.807 116.845 264.299 117.034 261.62C117.434 255.943 117.889 249.496 120.663 241.693C121.608 239.036 122.671 236.393 123.739 233.738C127.286 224.917 130.886 215.961 130.404 205.901C130.237 202.432 129.585 198.269 128.868 193.694C126.881 181.011 124.4 165.169 130.404 152.213C130.507 151.991 130.611 151.771 130.718 151.555C143.068 141.714 155.317 137.524 165.585 136.537C167.628 136.79 169.632 137.13 171.563 137.522C173.11 137.837 174.613 138.127 176.067 138.407C181.694 139.492 186.564 140.432 190.252 142.08C190.884 142.689 191.361 143.312 191.671 143.932C196.07 152.746 186.958 162.896 179.732 167.971C172.505 173.046 174.076 175.183 182.245 173.046C189.486 171.152 188.334 171.776 179.446 176.592C178.307 177.21 177.04 177.896 175.647 178.655C163.394 185.333 177.218 182.66 187.272 180.524C197.327 178.387 195.441 183.462 193.242 185.599C192.321 186.494 191.289 187.014 190.379 187.473C189.115 188.11 188.084 188.631 187.901 189.873C187.586 192.009 185.387 194.413 182.56 195.482C182.336 195.566 182.109 195.651 181.878 195.736C179.196 196.732 176.127 197.872 174.39 200.824C172.505 204.029 167.792 204.562 162.137 204.295C156.481 204.028 148.941 206.165 155.853 211.774C162.765 217.383 172.505 213.377 177.532 211.24C165.907 223.527 149.255 214.445 146.113 210.172C142.971 205.898 141.4 204.562 137.316 205.631C133.231 206.699 131.975 211.773 135.745 212.842C137.415 213.315 139.148 213.107 140.559 212.937C142.333 212.723 143.599 212.571 143.599 213.91C143.599 215.945 138.647 219.511 134.268 222.664C133.473 223.236 132.698 223.794 131.975 224.327C127.261 227.799 132.603 230.738 136.059 231.806C139.515 232.874 138.573 234.21 132.917 239.553C125.062 247.3 140.144 254.511 153.968 246.23C165.028 239.606 174.705 239.019 178.161 239.553C174.181 240.532 164.525 244.04 157.738 250.237C152.018 255.46 144.441 256.919 137.704 258.215C134.449 258.842 131.391 259.43 128.832 260.387C120.977 263.325 125.062 269.201 131.66 269.469C135.18 269.611 141.381 266.258 148.499 262.408C154.727 259.041 161.656 255.294 168.107 253.175C181.931 248.635 191.357 252.107 196.384 253.977C188.215 253.443 165.279 260.121 153.34 266.798C147.565 270.028 143.26 271.259 139.501 272.333C135.489 273.48 132.098 274.449 128.204 277.483C120.663 283.359 130.718 287.366 137.944 286.297C141.173 285.82 145.717 283.211 150.907 280.231C157.334 276.541 164.75 272.283 171.877 270.805C181.41 268.828 193.471 270.966 199.453 272.566C198.818 273.814 198.386 273.855 197.955 273.745Z" fill="#1771EA"/>
<path d="M129.997 201.421C131.297 199.848 133.17 197.459 134.174 195.752C135.744 193.081 136.687 192.012 138.886 193.882C141.086 195.752 144.542 195.485 146.427 193.348C146.39 193.496 146.353 193.641 146.316 193.785C145.422 197.292 144.801 199.727 151.14 198.957C153.458 198.676 156.784 199.054 160.001 199.419C165.942 200.094 171.512 200.727 169.678 197.088C166.849 191.479 164.964 177.856 170.62 173.048C175.144 169.202 178.999 163.789 180.36 161.563C182.873 156.488 182.622 146.605 161.508 147.674C153.127 148.098 143.986 146.34 135.432 144.641C133.501 146.698 131.8 149.198 130.403 152.213C124.399 165.169 126.881 181.011 128.868 193.694C129.298 196.437 129.704 199.034 129.997 201.421Z" fill="#2068D9"/>
<path d="M185.701 263.861C192.237 264.075 193.661 260.033 193.556 257.986C193.556 256.383 195.441 256.383 194.499 263.327C193.556 270.272 182.245 266.533 172.505 267.334C162.765 268.135 148.941 274.28 145.485 276.149C162.451 263.594 177.532 263.594 185.701 263.861Z" fill="#3881F2"/>
<path d="M192.925 255.048C193.658 257.808 194.999 264.77 194.496 270.54M123.489 279.888C123.489 281.847 123.677 286.566 124.431 289.771L123.489 279.888ZM131.03 276.416C131.762 278.82 133.166 284.162 132.915 286.299L131.03 276.416ZM136.056 273.745C136.58 275.614 137.627 280.797 137.627 286.566L136.056 273.745ZM142.34 274.279V281.224V274.279ZM147.367 270.54C147.996 272.142 149.064 276.095 148.31 279.087L147.367 270.54ZM152.394 267.601C152.918 269.382 153.966 273.638 153.966 276.416L152.394 267.601ZM158.678 265.999V272.944V265.999ZM164.648 262.526C165.172 264.841 165.905 270.326 164.648 273.745V262.526ZM169.047 261.191C169.78 262.705 171.12 266.533 170.618 269.738L169.047 261.191ZM176.587 259.856C176.587 262.171 176.587 267.014 176.587 267.869V259.856ZM180.672 257.718C180.986 259.855 181.614 265.037 181.614 268.67L180.672 257.718ZM189.155 260.924C189.26 263.061 189.281 267.815 188.527 269.738L189.155 260.924Z" stroke="#2068D9" stroke-width="1.07894"/>
<path d="M126.633 275.082C147.16 265.734 190.54 247.945 198.583 254.782" stroke="#3881F2" stroke-width="1.07894"/>
<path d="M116.265 269.204C115.259 275.187 117.312 277.751 118.464 278.286C118.514 278.923 118.588 280.07 118.651 281.491C121.522 279.176 127.89 274.226 130.403 272.944C125.691 274.279 119.467 276.95 118.651 271.074C117.836 265.198 120.977 259.054 122.863 255.849C124.748 252.644 127.003 243.028 124.619 231.543C123.265 234.939 121.868 238.304 120.663 241.692C116.579 253.178 117.522 261.725 116.265 269.204Z" fill="#2068D9"/>
<path d="M93.3215 282.637C93.751 276.41 94.8432 268.836 98.0459 264.171C100.612 260.431 101.796 261.235 104.702 261.808C106.42 263.956 109.384 271.128 107.494 282.637C105.132 297.024 92.5664 293.588 93.3215 282.637Z" fill="#FEBE9D"/>
<path d="M91.7566 273.746C92.2594 272.678 92.5945 271.164 92.6992 270.541C93.6417 263.596 92.6992 256.919 92.6992 245.433C92.6992 233.948 95.5273 221.928 98.0405 217.654C100.554 213.381 99.9257 209.641 101.183 207.504C102.439 205.367 106.21 202.964 104.953 195.752C103.696 188.54 108.095 187.738 108.409 178.657C108.723 169.575 110.608 158.09 116.578 150.076C122.548 142.063 144.541 136.721 146.741 151.946C148.94 167.171 140.771 177.321 137.315 183.999C133.859 190.676 129.46 205.1 128.832 208.839C128.203 212.579 125.375 223.263 125.375 227.804C125.375 232.345 124.119 240.625 122.234 247.837C120.348 255.049 116.264 263.863 115.007 264.664C113.75 265.466 113.122 266 113.122 267.335C113.122 268.671 112.493 273.212 112.179 274.814C111.865 276.417 111.551 276.951 110.608 276.417C109.666 275.883 108.095 275.883 105.267 275.883C102.439 275.883 97.7265 276.417 94.8988 276.15C92.0711 275.883 91.1285 275.081 91.7566 273.746Z" fill="#217BF4"/>
<path d="M104.012 266.535C97.9792 267.817 94.7952 266.713 93.9573 266.001C95.7378 266.535 99.9694 266.969 103.383 266.001C106.211 265.199 110.191 265.288 111.552 265.734C110.086 265.734 106.525 265.894 104.012 266.535Z" fill="#3881F2"/>
<path d="M108.41 267.068C108.096 268.136 107.719 270.54 108.725 271.608C109.73 272.677 108.934 273.656 108.41 274.012M97.4136 269.472C97.6229 270.273 97.7905 272.303 96.7855 274.012L97.4136 269.472ZM101.812 267.602L101.498 273.478L101.812 267.602Z" stroke="#2068D9" stroke-width="1.07894"/>
<path d="M108.427 275.934C109.245 274.497 110.176 272.266 109.981 270.273C109.667 267.068 105.268 266 102.755 266.534C105.896 265.198 112.809 262.26 114.694 255.583C116.579 248.905 115.951 244.899 109.981 244.364C108.724 244.364 107.467 244.097 111.866 240.892C116.265 237.687 123.177 231.543 116.579 227.804C109.981 224.065 105.582 221.126 104.64 217.12C107.781 219.257 111.552 221.66 113.123 221.928C114.482 222.159 114.43 221.99 113.782 219.866C113.68 219.534 113.564 219.155 113.437 218.722C112.494 215.517 110.295 207.504 110.295 205.1C111.238 208.038 112.809 212.579 116.893 214.449C120.978 216.318 122.234 211.243 121.606 207.771C120.978 204.299 120.663 201.628 124.748 198.689C128.832 195.751 135.43 185.334 130.718 180.793C126.005 176.253 117.522 167.972 117.836 161.562C118.08 156.578 117.565 154.985 115.256 152.012C115.673 151.347 116.113 150.701 116.579 150.076C120.845 144.35 133.295 139.988 140.856 143.521C141.563 143.947 142.263 144.38 142.955 144.817C144.891 146.367 146.27 148.685 146.742 151.946C148.573 164.622 143.217 173.78 139.377 180.345C138.605 181.665 137.894 182.881 137.315 183.999C133.86 190.676 129.461 205.1 128.832 208.839C128.638 209.997 128.233 211.82 127.766 213.92C126.724 218.605 125.376 224.669 125.376 227.804C125.376 232.345 124.12 240.625 122.234 247.837C120.349 255.049 116.265 263.863 115.008 264.664C113.751 265.466 113.123 266 113.123 267.335C113.123 268.671 112.494 273.212 112.18 274.814C111.866 276.417 111.552 276.951 110.609 276.417C110.099 276.128 109.405 275.995 108.427 275.934Z" fill="#1771EA"/>
<path d="M132.087 197.3C130.441 202.292 129.152 206.941 128.833 208.838C128.638 209.996 128.233 211.819 127.766 213.919C126.725 218.604 125.377 224.668 125.377 227.803C125.377 229.22 125.255 231.002 125.028 233.002C123.363 229.736 120.687 226.139 117.208 225.4C111.768 224.244 115.04 224.289 117.443 224.322C117.817 224.327 118.169 224.332 118.465 224.332C120.664 224.332 121.606 223.262 119.093 221.927C117.082 220.859 114.066 215.071 112.809 212.311C114.171 215.071 118.15 220.591 123.178 220.591C124.748 220.591 126.005 219.256 125.063 216.585C124.225 214.211 126.86 204.036 132.087 197.3Z" fill="#2068D9"/>
<path d="M148.676 133.304L150.861 120.881L166.427 124.121C166.063 125.742 166.099 130.765 166.973 136.815C167.847 142.864 170.432 146.087 171.889 147.078L148.676 133.304Z" fill="#FEBE9D"/>
<path d="M150.996 120.88L166.245 124.112C165.978 125.323 165.931 128.438 166.284 132.461C155.4 131.169 151.557 124.202 150.996 120.88Z" fill="#F2AD8A"/>
<path d="M142.331 175.135C141.759 171.412 144.334 170.614 146.623 169.551C148.02 168.902 149.737 168.054 150.342 166.404C154.359 167.977 158.375 168.373 164.648 167.564C164.934 171.329 165.563 180.029 165.792 184.709C166.078 190.56 168.081 199.867 161.5 196.676C154.92 193.485 152.917 193.219 149.77 194.017C146.623 194.814 144.334 194.017 144.048 188.964C143.762 183.911 142.903 176.199 142.331 175.135Z" fill="#8CB9FF"/>
<path d="M149.219 194.165C148.343 192.287 147.021 188.051 147.44 183.135C148.008 176.478 149.711 171.153 151.698 176.212C153.288 180.259 153.685 184.998 153.685 186.862C154.821 186.24 157.148 183.613 157.375 178.075C157.659 171.152 157.943 171.418 158.795 175.412C159.646 179.406 159.93 179.939 160.782 175.412C160.896 174.807 160.989 174.26 161.074 173.763C161.613 170.608 161.797 169.526 164.582 169.05C164.542 168.499 164.505 168 164.472 167.565C158.249 168.375 154.264 167.979 150.279 166.404C149.678 168.056 147.975 168.905 146.588 169.555C146.399 169.644 146.208 169.73 146.017 169.818C143.914 170.773 141.81 171.729 142.331 175.147C142.898 176.212 143.75 183.933 144.034 188.992C144.302 193.782 146.352 194.753 149.219 194.165Z" fill="#7EAEFA"/>
<path opacity="0.5" d="M142.889 177.569C143.966 175.309 145.851 172.196 147.736 171.668C150.582 170.872 151.151 170.341 152.004 169.544C152.858 168.748 153.711 169.279 153.996 170.341C154.28 171.403 155.134 170.341 155.987 169.279C156.841 168.217 158.548 169.014 158.833 169.81C158.934 170.095 159.29 169.905 159.9 169.58C160.847 169.075 162.408 168.243 164.582 168.355C164.561 168.071 164.541 167.806 164.523 167.562C158.285 168.369 154.291 167.974 150.297 166.404C149.695 168.051 147.988 168.897 146.598 169.545C146.409 169.634 146.217 169.72 146.026 169.807C143.917 170.76 141.809 171.713 142.331 175.12C142.499 175.434 142.693 176.331 142.889 177.569Z" fill="#70A2F2"/>
<path d="M163.066 128.181C152.698 126.898 144.406 117.994 141.648 113.895C136.133 115.232 135.03 114.429 134.754 110.687C134.478 106.944 141.648 105.073 143.027 98.9249C144.406 92.7767 149.093 81.2828 162.329 75.9363C175.565 70.5902 186.87 87.9656 187.146 93.3121C187.422 98.6582 186.598 111.379 183.286 118.707C179.779 126.463 176.026 129.785 163.066 128.181Z" fill="#FEBE9D"/>
<path d="M142.176 113.364C136.693 114.697 135.405 114.732 135.13 111.002C129.921 112.068 118.68 115.951 115.39 122.958C111.278 131.716 115.39 133.114 118.132 134.447C120.874 135.779 119.503 139.508 115.939 140.041C112.375 140.574 112.1 137.91 111.826 136.312C110.181 143.505 115.939 143.505 118.406 142.439C116.761 146.702 117.31 149.899 121.148 150.964C124.986 152.03 121.148 156.026 121.148 159.756C121.148 163.486 125.26 165.617 125.535 168.281C125.809 170.945 129.099 172.278 132.389 173.343C135.679 174.409 134.308 175.741 132.937 178.138C131.566 180.536 133.759 182.401 134.034 185.598C134.308 188.795 136.501 189.061 139.243 189.594C136.501 185.065 138.146 183.467 139.791 182.135L139.843 182.093C141.465 180.78 142.801 179.698 142.259 176.007C141.71 172.278 144.178 171.478 146.371 170.412C148.565 169.347 151.581 167.748 149.387 162.953C147.194 158.157 154.048 154.96 155.693 150.165C157.338 145.369 153.5 139.508 151.855 137.377C150.21 135.246 148.565 132.049 148.016 130.717C147.468 129.385 148.016 129.385 148.29 129.651C149.661 130.983 149.936 129.917 150.21 128.586C150.429 127.52 150.667 124.39 150.758 122.958C146.577 119.988 143.676 115.599 142.176 113.364Z" fill="#2B2B39"/>
<path d="M165.953 131.782V128.336C172.77 128.818 176.661 127.566 179.442 124.856C185.099 131.516 180.091 137.377 179.269 138.71C177.624 136.578 174.334 135.779 173.511 135.779C172.689 135.779 171.866 136.045 171.044 134.713C170.221 133.381 169.947 131.782 168.302 130.717C166.986 129.864 166.188 131.072 165.953 131.782Z" fill="#2B2B39"/>
<path d="M134.75 125.604C136.409 126.818 139.258 130.237 137.385 134.193" stroke="#151523" stroke-width="0.8"/>
<path d="M142.175 128.61C145.717 131.338 151.975 138.113 148.669 143.393C144.536 149.992 143.651 152.368 143.651 157.384" stroke="#151523" stroke-width="0.8"/>
<path d="M135.21 161.25C137.101 160.456 140.26 157.174 137.764 150.399C135.267 143.623 138.426 139.635 140.317 138.488" stroke="#151523" stroke-width="0.8"/>
<path d="M125.696 141.065C123.418 143.263 120.229 148.135 125.696 150.034C132.53 152.409 134.17 154.783 131.983 159.532" stroke="#151523" stroke-width="0.8"/>
<path d="M124.532 154.378C125.233 155.198 126.213 157.548 124.532 160.39" stroke="#151523" stroke-width="0.8"/>
<path d="M120.975 125.236C120.032 126.126 118.775 128.548 121.289 131.112C124.431 134.317 124.117 136.187 122.546 138.324" stroke="#151523" stroke-width="0.8"/>
<path opacity="0.5" d="M127.306 114.194C126.073 115.849 124.856 117.707 123.909 119.575C123.012 121.344 122.351 123.136 122.157 124.777C121.963 126.418 122.232 127.938 123.235 129.131C123.474 129.415 123.707 129.689 123.933 129.956C124.836 131.016 125.629 131.949 126.2 132.835C126.91 133.937 127.248 134.924 127.031 135.939C126.812 136.96 126.023 138.063 124.339 139.371C123.143 140.3 121.509 141.323 119.34 142.482C119.225 142.752 119.119 143.018 119.024 143.278C121.536 141.966 123.412 140.815 124.763 139.765C126.496 138.419 127.396 137.218 127.649 136.035C127.903 134.847 127.494 133.731 126.751 132.578C126.159 131.66 125.336 130.692 124.431 129.628L124.431 129.628C124.207 129.365 123.978 129.096 123.746 128.82C122.864 127.77 122.597 126.398 122.782 124.83C122.968 123.264 123.603 121.529 124.486 119.786C125.56 117.668 126.99 115.558 128.391 113.751C128.029 113.894 127.667 114.042 127.306 114.194Z" fill="#1C1C2A"/>
<path opacity="0.5" d="M144.195 116.516C143.651 118.331 143.237 120.782 143.393 123.403C143.593 126.768 144.733 130.432 147.763 133.384C151.462 136.989 152.769 139.535 152.769 141.736C152.769 143.946 151.456 145.886 149.659 148.31C147.85 150.751 146.785 153.155 146.926 156.05C147.049 158.57 148.086 161.432 150.281 164.988C150.171 164.377 149.954 163.697 149.607 162.937C149.492 162.685 149.402 162.439 149.335 162.196C148.14 159.826 147.563 157.82 147.476 156.024C147.342 153.292 148.339 151.007 150.105 148.624C151.883 146.226 153.319 144.147 153.319 141.736C153.319 139.313 151.876 136.635 148.151 133.005C145.241 130.17 144.136 126.644 143.942 123.372C143.8 120.977 144.147 118.728 144.625 117.007C144.477 116.841 144.334 116.678 144.195 116.516Z" fill="#1C1C2A"/>
<path opacity="0.5" d="M138.721 189.594C138.178 188.965 137.662 188.229 137.259 187.411C136.366 185.595 136.038 183.381 137.204 181.004C138.58 178.201 138.076 175.707 137.612 173.41C137.55 173.104 137.489 172.801 137.433 172.501C137.194 171.218 137.048 169.995 137.303 168.771C137.557 167.555 138.212 166.313 139.621 165.006C141.116 163.618 141.677 162.181 141.79 160.691C141.883 159.442 141.661 158.151 141.435 156.847C141.396 156.619 141.356 156.39 141.318 156.161C141.061 154.609 140.871 153.016 141.209 151.336C141.546 149.663 142.412 147.883 144.304 145.974L144.312 145.966L144.319 145.957C145.631 144.395 145.832 142.283 145.124 140.145C144.435 138.066 142.884 135.94 140.613 134.197C141.264 132.954 141.707 129.986 139.394 126.094C137.889 123.56 136.953 121.328 136.853 119.182C136.78 117.622 137.149 116.089 138.092 114.503C137.879 114.493 137.681 114.471 137.499 114.437C136.595 116.031 136.228 117.599 136.304 119.206C136.41 121.482 137.399 123.805 138.918 126.362C141.259 130.302 140.621 133.146 140.054 134.076C138.331 135.203 135.95 137.359 134.317 140.224C132.744 142.983 131.858 146.413 132.941 150.21C132.85 150.171 132.756 150.133 132.66 150.095C128.985 148.636 127.732 146.956 127.606 145.365C127.477 143.737 128.51 142.069 129.745 140.598C130.99 139.116 132.601 136.869 133.269 134.401C133.942 131.915 133.658 129.195 131.096 126.837C129.193 125.086 128.701 122.832 128.871 120.695C129.041 118.554 129.877 116.557 130.593 115.379L130.12 115.105C129.37 116.339 128.501 118.415 128.323 120.654C128.144 122.899 128.66 125.333 130.718 127.227C133.105 129.423 133.371 131.927 132.738 134.265C132.1 136.62 130.549 138.794 129.319 140.259C128.079 141.736 126.911 143.551 127.058 145.406C127.207 147.299 128.703 149.103 132.453 150.591C132.741 150.706 133.01 150.823 133.26 150.943C134.614 151.594 135.407 152.32 135.821 153.066C136.232 153.807 136.287 154.6 136.102 155.426C135.727 157.102 134.386 158.849 133.164 160.387L133.01 160.581C132.775 160.876 132.547 161.163 132.337 161.436C131.08 163.068 130.492 164.466 130.529 165.89C130.556 166.95 130.928 167.995 131.578 169.133C130.687 168.471 129.794 167.741 129.061 166.907C128.015 165.72 127.314 164.343 127.408 162.683C127.452 161.9 127.673 161.044 128.13 160.103C128.753 158.823 129.195 157.675 129.373 156.668C129.552 155.659 129.469 154.767 129.012 154.023C128.554 153.28 127.748 152.73 126.577 152.349C125.574 152.024 124.287 151.816 122.677 151.721C122.799 151.89 122.881 152.075 122.931 152.275C124.376 152.375 125.519 152.571 126.403 152.858C127.5 153.214 128.172 153.702 128.54 154.299C128.907 154.895 128.996 155.644 128.831 156.577C128.666 157.513 128.248 158.609 127.634 159.874C127.155 160.859 126.912 161.775 126.86 162.629C126.572 163.795 126.142 165.662 125.784 167.509C125.743 167.721 125.702 167.935 125.663 168.147C125.671 168.196 125.677 168.246 125.682 168.295C125.723 168.697 125.832 169.068 125.999 169.413C126.094 168.834 126.205 168.224 126.324 167.608C126.545 166.47 126.793 165.324 127.018 164.341C127.297 165.445 127.897 166.409 128.643 167.256C129.742 168.505 131.174 169.522 132.395 170.387L132.785 170.022C131.694 168.427 131.111 167.14 131.079 165.877C131.046 164.621 131.558 163.34 132.777 161.757C132.865 161.642 132.957 161.525 133.051 161.405C133.017 162.334 133.045 163.546 133.205 164.834C133.422 166.58 133.887 168.491 134.793 170.036C135.604 171.419 135.284 173.054 134.484 174.591C134.483 174.593 134.482 174.594 134.481 174.596C134.641 174.914 134.627 175.263 134.501 175.652C134.67 175.386 134.829 175.113 134.974 174.833C135.806 173.236 136.219 171.387 135.27 169.77C134.416 168.313 133.964 166.482 133.751 164.769C133.544 163.106 133.564 161.577 133.648 160.653C134.84 159.151 136.239 157.333 136.64 155.54C136.845 154.618 136.792 153.689 136.304 152.81C135.832 151.958 134.967 151.184 133.608 150.514C132.368 146.704 133.215 143.26 134.797 140.484C136.346 137.768 138.593 135.704 140.245 134.597C142.46 136.289 143.948 138.34 144.6 140.31C145.266 142.322 145.057 144.226 143.9 145.61C141.948 147.582 141.028 149.45 140.669 151.233C140.312 153.012 140.517 154.684 140.775 156.247C140.815 156.484 140.855 156.718 140.895 156.948C141.12 158.256 141.33 159.472 141.241 160.651C141.138 162.016 140.634 163.326 139.242 164.618C137.763 165.99 137.043 167.327 136.764 168.664C136.487 169.994 136.65 171.301 136.892 172.597C136.95 172.905 137.011 173.213 137.073 173.522C137.536 175.824 138.001 178.14 136.708 180.773C135.455 183.326 135.814 185.712 136.763 187.642C137.081 188.288 137.464 188.884 137.877 189.42C138.149 189.481 138.431 189.537 138.721 189.594Z" fill="#1C1C2A"/>
<path d="M115.712 123.088C118.432 121.256 121.318 119.88 122.037 121.428C123.403 124.368 126.135 122.497 126.955 120.359C127.774 118.22 128.047 118.755 129.413 121.962C129.998 123.336 130.382 122.651 130.91 121.713C131.614 120.459 132.573 118.752 134.604 120.893C136.315 122.696 137.9 120.899 139.389 119.21C140.988 117.396 142.477 115.707 143.892 118.754C144.813 120.735 145.485 122.868 146.118 124.877C146.738 126.843 147.32 128.691 148.062 130.161C147.914 129.456 148.315 129.497 148.536 129.714C149.903 131.05 150.176 129.981 150.449 128.644C150.668 127.575 150.904 124.435 150.995 122.998C146.829 120.018 143.669 115.607 142.175 113.364C136.711 114.701 135.697 114.744 135.423 111.002C130.233 112.071 119.032 115.968 115.754 122.998C115.74 123.028 115.726 123.058 115.712 123.088Z" fill="#1C1C2A"/>
<path d="M147.982 130.748C147.433 129.412 147.982 129.412 148.256 129.679C148.877 130.284 149.273 130.396 149.545 130.214C151.402 131.996 155.663 135.986 157.858 137.696C160.053 139.407 165.723 141.26 168.284 141.972C167.357 140.102 165.59 135.452 165.934 131.817C166.168 131.105 166.967 129.893 168.284 130.748C169.93 131.817 170.204 133.421 171.027 134.757C171.851 136.093 172.673 135.826 173.497 135.826C174.32 135.826 177.612 136.628 179.258 138.765C179.715 139.122 181.014 139.941 182.55 140.369C184.471 140.903 186.94 143.576 186.117 146.248C185.294 148.92 182.002 151.593 180.356 154.532C178.709 157.472 176.24 166.291 167.735 167.894C166.253 168.174 164.888 168.399 163.62 168.57C157.605 169.383 153.754 168.985 149.902 167.404C150.272 166.345 150.208 164.958 149.353 163.084C147.158 158.274 154.017 155.067 155.663 150.257C157.31 145.446 153.469 139.567 151.822 137.429C150.176 135.291 148.53 132.084 147.982 130.748Z" fill="#8CB9FF"/>
<path d="M160.281 138.916C161.838 141.081 164.872 144.104 168.652 144.462C174.265 144.994 175.067 139.937 174.533 137.541C172.127 139.405 167.85 141.002 168.117 137.275C168.154 136.756 168.197 136.263 168.237 135.794C168.427 133.578 168.573 131.89 167.915 130.502C166.752 129.898 166.044 131.014 165.827 131.686C165.492 135.306 167.214 139.938 168.117 141.801C166.29 141.281 162.838 140.152 160.281 138.916Z" fill="#7EAEFA"/>
<path d="M157.901 167.945C157.105 167.739 156.322 167.496 155.539 167.215C155.963 166.157 155.89 164.771 154.911 162.898C153.371 159.953 155.721 157.609 158.207 155.131C159.779 153.563 161.406 151.94 162.137 150.077C163.476 146.662 161.645 142.708 159.795 139.938C162.145 141.247 165.782 143.165 168.421 144.201C172.505 145.803 171.563 148.741 166.221 146.07C164.022 145.002 164.022 148.474 168.421 150.344C172.819 152.214 180.988 151.947 183.816 145.536C186.644 139.126 190.1 139.927 187.901 146.07C185.701 152.214 181.302 158.891 177.847 161.028C176.172 162.063 173.761 162.346 171.291 162.636C168.662 162.945 165.966 163.261 164.022 164.5C161.13 166.344 160.318 167.844 160.256 168.436C159.761 168.357 159.276 168.265 158.798 168.16L157.901 167.945Z" fill="#7EAEFA"/>
<path opacity="0.5" d="M149.86 166.403C149.989 165.463 149.799 164.301 149.116 162.845C147.738 159.91 149.841 157.574 152.066 155.103C153.473 153.54 154.929 151.922 155.582 150.065C155.68 149.788 155.758 149.508 155.82 149.225L158.956 152.195C160.924 154.059 167.672 154.323 171.046 153.526C168.796 154.858 165.985 155.122 160.643 154.323C155.301 153.525 153.614 155.921 156.707 157.519C159.8 159.116 168.796 156.72 171.889 154.59C169.089 159.17 163.754 159.823 159.849 160.3C159.44 160.35 159.047 160.398 158.675 160.448C157.303 160.634 155.795 160.496 154.447 160.373C151.929 160.143 149.972 159.964 150.522 162.046C151.127 164.342 150.419 165.807 149.86 166.403Z" fill="#70A2F2"/>
<path d="M153.014 86.5223C154.753 80.3211 160.077 80.1966 162.522 80.9095C163.88 81.1646 162.794 77.9695 167.412 77.4349C172.031 76.9004 175.019 79.8407 176.378 81.979C177.736 84.1173 178.823 86.2556 180.996 88.1264C182.083 91.3338 185.614 94.8087 186.43 95.6104C186.43 96.4124 186.744 101.725 186.744 104.13C191.362 100.656 189.418 97.4816 190.505 94.5412C191.374 92.1892 190.686 90.7101 190.233 90.2647C190.324 89.0172 190.396 86.1485 189.961 84.6519C189.418 82.7807 187.516 82.5136 186.701 82.5136C187.244 81.1769 186.701 79.8407 185.886 79.3057C185.071 78.7712 184.256 77.4349 183.169 75.2966C182.083 73.1583 177.736 69.6836 175.834 68.8817C173.933 68.0798 173.933 66.7434 173.389 66.2088C166.326 60.0612 160.077 62.7341 158.719 63.2687C157.361 63.8033 156.546 63.2687 156.002 63.0015C145.407 56.5866 138.615 65.6744 136.714 68.3472C125.303 73.1584 121.228 79.3061 122.043 87.8593C122.858 96.4124 120.413 99.6199 118.511 101.491C116.61 103.362 117.153 105.233 118.783 107.371C121.771 111.648 116.61 112.183 114.708 113.252C112.806 114.321 114.165 117.261 113.35 118.597C112.534 119.934 112.806 122.606 114.98 124.745C118.24 118.597 127.477 115.925 132.638 114.855C137.8 113.786 142.69 106.569 146.494 103.362C150.297 100.154 150.841 94.2738 153.014 86.5223Z" fill="#2B2B39"/>
<path opacity="0.5" d="M145.873 103.954C146.295 97.471 147.558 89.739 150.186 83.8874C151.803 80.2879 153.92 77.4387 156.637 76.0065C159.298 74.6038 162.588 74.5341 166.662 76.5554C166.61 76.9562 166.504 77.336 166.361 77.6906C166.557 77.6373 166.766 77.5899 166.992 77.5497C167.108 77.1951 167.19 76.8193 167.225 76.4249C167.346 75.0819 166.928 73.5554 165.567 71.9573C164.105 70.2393 162.602 68.9216 161.264 67.7488C160.853 67.3894 160.459 67.0434 160.086 66.7039C158.94 65.6613 157.995 64.6764 157.373 63.5232C157.108 63.4894 156.877 63.4164 156.672 63.3322C157.127 64.3309 157.795 65.1914 158.595 66.0189C157.293 65.5036 155.673 65.0325 153.933 64.8045C150.476 64.3515 146.491 64.8533 143.598 67.9416C140.565 71.1802 138.026 75.8206 135.975 80.6051C133.922 85.3936 132.35 90.3464 131.257 94.2249C130.172 98.0716 128.344 101.977 125.915 105.015C124.107 107.276 121.979 109.042 119.588 109.958C119.554 110.195 119.479 110.41 119.37 110.607C122.052 109.696 124.398 107.779 126.345 105.344C128.828 102.239 130.683 98.2659 131.782 94.367C132.872 90.5005 134.438 85.5711 136.478 80.8117C138.521 76.0475 141.031 71.4738 144.001 68.3025C146.379 65.7633 149.555 65.0594 152.561 65.2145C149.643 66.313 144.708 69.179 141.114 74.6548C138.56 78.5456 137.06 84.2066 135.569 89.8341L135.451 90.2807C133.912 96.0846 132.353 101.803 129.658 105.629C127.513 108.672 124.516 110.535 121.631 111.627C119.191 112.551 116.841 112.919 115.177 112.985C114.964 113.074 114.769 113.164 114.6 113.259C114.499 113.316 114.406 113.378 114.322 113.445L114.32 113.526C116.038 113.571 118.871 113.245 121.828 112.126C124.787 111.006 127.885 109.085 130.107 105.932C132.869 102.013 134.448 96.1901 135.979 90.4149L136.083 90.0228C137.586 84.3503 139.067 78.761 141.573 74.9433C145.651 68.7304 151.485 65.9622 153.913 65.3409C155.714 65.5823 157.379 66.0908 158.673 66.6284C155.372 66.818 149.986 68.5754 147.637 74.7053C146.835 76.799 145.758 80.227 144.491 84.2556L144.396 84.5609C143.086 88.726 141.578 93.5128 139.96 98.1493C138.341 102.786 136.613 107.265 134.868 110.814C134.103 112.369 133.338 113.741 132.578 114.868C132.589 114.866 132.6 114.863 132.611 114.861C132.861 114.81 133.111 114.744 133.359 114.665C134.029 113.615 134.697 112.394 135.36 111.046C137.119 107.468 138.855 102.966 140.476 98.322C142.098 93.6768 143.609 88.8824 144.917 84.7181L145.007 84.4315C146.278 80.3874 147.352 76.971 148.148 74.8928C150.683 68.2783 156.904 66.9835 159.785 67.1594C160.149 67.489 160.528 67.8211 160.918 68.1629C162.251 69.3318 163.713 70.6142 165.148 72.2993C166.287 73.6362 166.697 74.8836 166.699 75.9767C162.598 73.9996 159.184 74.0573 156.378 75.5364C153.505 77.0506 151.324 80.0271 149.687 83.672C146.943 89.7784 145.677 97.8698 145.293 104.504C145.489 104.314 145.682 104.13 145.873 103.954Z" fill="#1C1C2A"/>
<path opacity="0.5" d="M119.197 108.205C122.35 107.077 124.199 104.341 125.432 100.996C126.19 98.9397 126.721 96.6367 127.182 94.3045C127.366 93.3767 127.538 92.4469 127.708 91.5254C127.968 90.1215 128.224 88.7371 128.512 87.4068C129.86 81.1842 133.884 73.0033 136.36 68.5349C136.083 68.6528 135.812 68.7716 135.544 68.8912C133.044 73.4853 129.283 81.2758 127.978 87.2962C127.689 88.6308 127.43 90.0327 127.168 91.445C126.998 92.3653 126.827 93.2899 126.647 94.203C126.187 96.5284 125.661 98.7988 124.918 100.815C123.701 104.118 121.92 106.695 118.927 107.732C119.029 107.896 119.119 108.053 119.197 108.205Z" fill="#1C1C2A"/>
<path d="M186.453 96.3281C186.849 96.3591 187.249 96.3794 187.646 96.3906C188.45 96.4133 189.256 96.3981 190.029 96.3583C190.051 96.1776 190.075 95.9981 190.105 95.8198C189.315 95.8628 188.487 95.8803 187.662 95.8572C187.248 95.8456 186.838 95.8237 186.434 95.7907C186.437 95.9272 186.444 96.1091 186.453 96.3281Z" fill="#3A0A44"/>
<path d="M181.221 88.7208C184.737 90.442 188.18 90.8348 190.456 90.7501C190.355 90.559 190.246 90.4145 190.148 90.3182L190.151 90.28L190.155 90.2246C187.785 90.268 184.214 89.7804 180.653 87.8224C180.764 87.9247 180.878 88.0262 180.994 88.1266C181.061 88.324 181.137 88.5222 181.221 88.7208Z" fill="#3A0A44"/>
<path opacity="0.5" d="M162.601 69.3249C163.824 67.9478 167.624 65.9132 173.866 67.1509C173.965 67.3492 174.081 67.561 174.235 67.774C167.855 66.3613 164.104 68.4421 163.009 69.6765L162.601 69.3249Z" fill="#1C1C2A"/>
<path opacity="0.5" d="M184.681 82.5913C185.367 82.7175 186.06 82.6232 186.752 82.206C186.72 82.3294 186.679 82.454 186.628 82.5782C186.765 82.5782 186.933 82.5858 187.121 82.6076C186.298 83.1315 185.444 83.2744 184.582 83.1159C183.369 82.893 182.188 82.081 181.093 81.0354C179.385 79.4046 177.8 77.1154 176.551 75.3119C176.199 74.8024 175.873 74.3319 175.579 73.9259C174.584 72.5533 172.912 72.2791 171.136 72.5467C169.365 72.8136 167.571 73.6111 166.463 74.2666L166.184 73.8089C167.332 73.1298 169.193 72.2994 171.054 72.0191C172.91 71.7396 174.848 71.9992 176.019 73.6158C176.326 74.0394 176.661 74.523 177.021 75.042C178.268 76.842 179.807 79.0639 181.47 80.6517C182.54 81.6742 183.627 82.3971 184.681 82.5913Z" fill="#1C1C2A"/>
<path d="M166.749 70.1759C168.382 68.9203 172.464 67.4316 175.729 71.5212C178.995 75.611 182.171 78.2481 183.35 79.0553M170.559 75.5577C173.008 76.1854 178.288 78.3018 179.812 81.7457C181.717 86.0505 185.255 88.7413 187.976 88.4722M185.799 91.1626C186.253 91.8802 187.541 93.0999 189.065 92.2389M165.388 64.7953C166.567 64.6159 169.252 64.4186 170.559 65.0644" stroke="#151523" stroke-width="0.8"/>
<path d="M160.281 70.0601C156.666 69.971 148.679 72.6266 145.643 83.9618M144.829 74.605C142.751 78.4366 138.215 87.7046 136.697 94.1207C134.799 102.141 133.444 112.3 119.89 114.439M122.601 100.804C123.866 98.8438 126.234 93.7465 125.583 89.0412C124.77 83.1597 125.854 77.5457 130.733 74.3375M152.962 63.3765C148.173 63.02 138.053 64.6597 135.884 74.07C133.715 83.4806 129.017 95.4573 126.939 100.269" stroke="#151523" stroke-width="0.8"/>
</g>
<path d="M404.891 78.3537H328.037C324.642 78.3537 321.89 81.1054 321.89 84.5003V101.923C321.89 105.317 324.642 108.069 328.037 108.069H390.668L409.839 114.3L404.567 108.069H404.891C408.285 108.069 411.037 105.317 411.037 101.923V84.5003C411.037 81.1054 408.285 78.3537 404.891 78.3537Z" fill="#FFBE56"/>
<path fill-rule="evenodd" clip-rule="evenodd" d="M342.499 95.6082C344.087 95.6082 345.375 94.3205 345.375 92.7323C345.375 91.1442 344.087 89.8565 342.499 89.8565C340.911 89.8565 339.624 91.1442 339.624 92.7323C339.624 94.3205 340.911 95.6082 342.499 95.6082ZM358.795 95.6082C360.383 95.6082 361.671 94.3205 361.671 92.7323C361.671 91.1442 360.383 89.8565 358.795 89.8565C357.207 89.8565 355.919 91.1442 355.919 92.7323C355.919 94.3205 357.207 95.6082 358.795 95.6082ZM377.487 92.7323C377.487 94.3205 376.2 95.6082 374.612 95.6082C373.023 95.6082 371.736 94.3205 371.736 92.7323C371.736 91.1442 373.023 89.8565 374.612 89.8565C376.2 89.8565 377.487 91.1442 377.487 92.7323ZM390.428 95.6082C392.016 95.6082 393.304 94.3205 393.304 92.7323C393.304 91.1442 392.016 89.8565 390.428 89.8565C388.84 89.8565 387.552 91.1442 387.552 92.7323C387.552 94.3205 388.84 95.6082 390.428 95.6082Z" fill="white"/>
<path d="M289.489 453.524C289.489 505.321 331.478 547.309 383.273 547.309C435.07 547.309 477.061 505.321 477.061 453.524C477.061 401.728 435.07 359.739 383.273 359.739C331.478 359.739 289.489 401.728 289.489 453.524Z" fill="white"/>
<path d="M383.273 546.309C332.03 546.309 290.489 504.768 290.489 453.524C290.489 402.28 332.03 360.739 383.273 360.739C434.517 360.739 476.061 402.28 476.061 453.524C476.061 504.768 434.517 546.309 383.273 546.309Z" stroke="#2773D9" stroke-opacity="0.6" stroke-width="2"/>
<path d="M401.127 391.92C391.607 411.658 375.261 399.887 371.508 391.918C378.956 391.916 376.568 376.82 375.499 369.273H397.498C397.083 380.898 399.743 389.215 401.127 391.92Z" fill="#FCC4AC"/>
<path d="M401.127 391.92C391.607 411.658 375.261 399.887 371.508 391.918C378.956 391.916 376.568 376.82 375.499 369.273H397.498C397.083 380.898 399.743 389.215 401.127 391.92Z" fill="url(#paint1_linear_1_626)"/>
<path d="M351.07 401.641C350.957 433.909 342.143 519.247 340.837 532.528C340.148 539.554 357.295 545.695 376.497 547.069C401.442 548.854 422.307 540.441 426.809 536.604C428.05 498.251 430.016 414.533 430.016 407.419C420.685 400.77 407.322 394.546 401.127 391.921C388.833 399.538 380.042 396.936 374.269 391.041C365.592 392.662 355.121 399.172 351.07 401.641Z" fill="#307FE2"/>
<path d="M351.07 401.641C350.957 433.909 342.143 519.247 340.837 532.528C340.148 539.554 357.295 545.695 376.497 547.069C401.442 548.854 422.307 540.441 426.809 536.604C428.05 498.251 430.016 414.533 430.016 407.419C420.685 400.77 407.322 394.546 401.127 391.921C388.833 399.538 380.042 396.936 374.269 391.041C365.592 392.662 355.121 399.172 351.07 401.641Z" fill="url(#paint2_linear_1_626)"/>
<path d="M351.07 401.641C350.957 433.909 342.143 519.247 340.837 532.528C340.148 539.554 357.295 545.695 376.497 547.069C401.442 548.854 422.307 540.441 426.809 536.604C428.05 498.251 430.016 414.533 430.016 407.419C420.685 400.77 407.322 394.546 401.127 391.921C388.833 399.538 380.042 396.936 374.269 391.041C365.592 392.662 355.121 399.172 351.07 401.641Z" fill="#2773D9"/>
<path opacity="0.35" d="M373.044 391.298C373.193 391.264 373.341 391.231 373.484 391.199C374.321 396.574 375.147 403.786 375.432 411.223C375.788 420.574 375.283 430.311 372.83 437.195C369.807 445.7 369.807 456.03 370.567 465.646C370.888 469.757 371.351 473.731 371.779 477.372V477.373V477.387C371.85 477.996 371.922 478.598 371.987 479.188C372.462 483.301 372.848 486.922 372.848 489.717C372.848 490.324 372.848 490.918 372.848 491.503C372.872 496.267 372.89 500.395 371.565 505.284C370.086 510.775 366.921 517.214 360.221 526.621C359.39 527.8 359.194 529.464 359.473 531.427C359.746 533.386 360.482 535.607 361.468 537.863C362.579 540.415 363.998 542.998 365.4 545.28C365.204 545.241 365.002 545.201 364.806 545.161C363.464 542.953 362.122 540.484 361.058 538.043C360.067 535.768 359.312 533.505 359.027 531.49C358.748 529.479 358.926 527.678 359.853 526.363V526.362C366.54 516.976 369.67 510.586 371.132 505.167C372.438 500.34 372.42 496.272 372.403 491.504V491.502C372.403 490.919 372.397 490.324 372.397 489.717C372.397 486.952 372.017 483.358 371.541 479.239C371.476 478.647 371.405 478.043 371.334 477.43V477.426V477.425C370.906 473.784 370.443 469.801 370.116 465.681C369.356 456.054 369.356 445.644 372.409 437.045C374.826 430.245 375.337 420.58 374.98 411.24C374.701 403.836 373.882 396.654 373.044 391.298Z" fill="white"/>
<path opacity="0.35" d="M344.415 538.161C344.629 538.308 344.849 538.454 345.08 538.599C344.201 536.512 343.548 534.47 343.293 532.654C343.019 530.69 343.209 529.026 344.041 527.847C350.74 518.44 353.906 512.001 355.391 506.51C356.709 501.621 356.692 497.493 356.674 492.729V492.72C356.668 492.138 356.668 491.547 356.668 490.943C356.668 488.148 356.288 484.527 355.813 480.414C355.741 479.824 355.67 479.223 355.599 478.613V478.599V478.598C355.171 474.957 354.708 470.983 354.387 466.872C353.627 457.256 353.627 446.926 356.656 438.421C359.103 431.537 359.608 421.8 359.251 412.449C359.05 407.183 358.58 402.03 358.022 397.562C357.88 397.64 357.737 397.718 357.6 397.796C358.147 402.21 358.604 407.284 358.8 412.466C359.156 421.807 358.646 431.471 356.228 438.271C353.176 446.871 353.176 457.28 353.936 466.907C354.262 471.028 354.726 475.01 355.153 478.651V478.652V478.657C355.225 479.27 355.296 479.873 355.367 480.465C355.842 484.584 356.217 488.179 356.217 490.943C356.217 491.55 356.222 492.143 356.222 492.726V492.731C356.24 497.499 356.258 501.566 354.957 506.394C353.49 511.812 350.36 518.202 343.673 527.588V527.589C342.746 528.904 342.568 530.705 342.847 532.716C343.085 534.403 343.655 536.265 344.415 538.161Z" fill="white"/>
<path opacity="0.35" d="M381.566 547.668C380.444 545.745 379.351 543.671 378.454 541.615C377.462 539.34 376.708 537.077 376.429 535.062C376.144 533.052 376.322 531.25 377.249 529.935V529.935C383.936 520.548 387.072 514.159 388.533 508.74C389.834 503.912 389.816 499.845 389.798 495.077V495.075C389.798 494.491 389.792 493.897 389.792 493.29C389.792 490.525 389.418 486.93 388.943 482.812C388.872 482.217 388.801 481.613 388.729 480.999V480.998C388.308 477.357 387.838 473.374 387.518 469.254C386.757 459.627 386.752 449.217 389.81 440.617C392.228 433.818 392.732 424.153 392.382 414.813C392.121 408.036 391.414 401.446 390.654 396.271C390.802 396.244 390.951 396.214 391.093 396.183C391.853 401.376 392.572 407.992 392.827 414.795C393.184 424.147 392.679 433.883 390.232 440.767C387.209 449.273 387.203 459.602 387.963 469.218C388.29 473.329 388.753 477.303 389.175 480.944V480.945C389.246 481.56 389.317 482.165 389.389 482.76C389.864 486.873 390.244 490.495 390.244 493.29C390.244 493.896 390.244 494.491 390.25 495.076C390.268 499.84 390.285 503.967 388.967 508.857C387.482 514.347 384.322 520.787 377.617 530.194C376.785 531.373 376.595 533.036 376.868 535C377.148 536.959 377.884 539.179 378.864 541.436C379.797 543.576 380.949 545.737 382.119 547.726C381.935 547.707 381.751 547.687 381.566 547.668Z" fill="white"/>
<path opacity="0.35" d="M400.145 548.839C398.779 546.604 397.412 544.095 396.331 541.615C395.34 539.34 394.585 537.077 394.3 535.062C394.021 533.051 394.199 531.25 395.126 529.935V529.934C401.813 520.548 404.944 514.158 406.411 508.74C407.711 503.912 407.693 499.844 407.676 495.076C407.676 494.492 407.67 493.897 407.67 493.289C407.67 490.525 407.296 486.93 406.82 482.812C406.749 482.218 406.678 481.613 406.607 480.999V480.998C406.185 477.357 405.716 473.373 405.395 469.253C404.629 459.626 404.629 449.216 407.687 440.617C410.105 433.818 410.61 424.153 410.259 414.812C409.98 407.553 409.184 400.506 408.371 395.186C408.531 395.262 408.691 395.34 408.858 395.419C409.659 400.718 410.431 407.653 410.705 414.795C411.061 424.146 410.556 433.883 408.109 440.767C405.086 449.272 405.08 459.602 405.84 469.218C406.167 473.33 406.63 477.304 407.052 480.945V480.953C407.123 481.565 407.195 482.168 407.266 482.76C407.741 486.873 408.121 490.494 408.121 493.289C408.121 493.896 408.121 494.49 408.127 495.074V495.076C408.145 499.84 408.163 503.967 406.844 508.857C405.359 514.347 402.2 520.787 395.494 530.193C394.663 531.372 394.472 533.036 394.746 534.999C395.025 536.958 395.761 539.179 396.741 541.436C397.852 543.985 399.271 546.567 400.673 548.848C400.495 548.845 400.323 548.842 400.145 548.839Z" fill="white"/>
<path opacity="0.35" d="M418.284 547.942C417.108 545.943 415.95 543.769 415.012 541.615C414.02 539.34 413.266 537.077 412.987 535.062C412.701 533.051 412.886 531.25 413.806 529.935L413.812 529.934C420.5 520.548 423.63 514.158 425.091 508.74C426.392 503.912 426.38 499.844 426.362 495.076C426.356 494.492 426.356 493.897 426.356 493.289C426.356 490.525 425.976 486.93 425.501 482.812C425.429 482.218 425.364 481.615 425.293 481.001V480.998C424.865 477.357 424.402 473.373 424.075 469.253C423.315 459.626 423.309 449.216 426.368 440.617C428.785 433.817 429.296 424.153 428.94 414.812C428.827 411.905 428.637 409.033 428.387 406.292C428.553 406.401 428.708 406.51 428.868 406.618C429.1 409.256 429.284 412.009 429.385 414.795C429.741 424.146 429.237 433.883 426.79 440.767C423.766 449.272 423.76 459.602 424.521 469.218C424.847 473.329 425.311 477.303 425.738 480.945C425.81 481.56 425.875 482.165 425.946 482.76C426.421 486.873 426.801 490.494 426.801 493.289C426.801 493.896 426.807 494.49 426.807 495.075C426.825 499.84 426.843 503.967 425.524 508.857C424.04 514.347 420.88 520.786 414.174 530.193C413.349 531.372 413.153 533.036 413.432 534.999C413.705 536.958 414.442 539.179 415.428 541.436C416.378 543.625 417.56 545.839 418.76 547.864C418.605 547.891 418.445 547.917 418.284 547.942Z" fill="white"/>
<path d="M362.159 337.539C361.862 344.298 362.159 360.816 362.159 372.916C362.159 393.368 392.812 377.509 397.498 369.271C406.728 353.046 396.524 338.415 394.576 337.539H362.159Z" fill="url(#paint3_linear_1_626)"/>
<path d="M362.159 337.539C361.862 344.298 362.159 360.816 362.159 372.916C362.159 393.368 392.812 377.509 397.498 369.271C406.728 353.046 396.524 338.415 394.576 337.539H362.159Z" fill="#FCC4AC"/>
<path d="M397.985 331.577C404.684 330.305 403.704 335.73 403.318 336.613C419.325 341.023 399.867 373.355 397.48 374.028L397.462 367.995C397.438 365.591 402.142 363.141 399.57 358.916C396.155 353.307 395.413 364.328 395.413 364.328C392.989 363.053 392.11 353.906 394.367 348.73C386.444 352.226 381.247 345.714 380.244 343.854C374.655 347.104 366.09 345.799 363.334 343.123C362.895 344.616 362.022 347.394 362.022 352.26C355.631 348.818 352.335 336.115 355.714 337.274C355.281 311.976 377.607 321.072 380.244 324.078C382.875 327.085 383.498 326.242 383.843 326.017C393.251 321.425 397.824 325.976 396.945 328.875C396.06 331.775 397.723 331.635 397.985 331.577Z" fill="#6E000E"/>
<path d="M265.676 444.704C260.887 445.13 256.726 442.272 257.658 441.949C270.119 437.625 286.872 443.01 296.556 445.982C299.955 452.85 294.314 460.461 291.069 463.408C289.434 461.757 286.051 459.622 283.833 459.622C272.561 459.002 261.712 475.176 250.688 467.125C241.869 460.683 257.006 449.494 265.676 444.704Z" fill="#F4B88E"/>
<path d="M265.676 444.704C260.887 445.13 256.726 442.272 257.658 441.949C270.119 437.625 286.872 443.01 296.556 445.982C299.955 452.85 294.314 460.461 291.069 463.408C289.434 461.757 286.051 459.622 283.833 459.622C272.561 459.002 261.712 475.176 250.688 467.125C241.869 460.683 257.006 449.494 265.676 444.704Z" fill="#FCC4AC"/>
<path d="M351.069 401.637C352.239 423.272 348.693 460.535 345.997 479.498C343.146 486.644 282.471 464.394 284.083 460.092C285.696 455.789 289.734 449.485 291.728 444.421C293.096 440.946 328.019 457.314 329.31 451.443C330.602 445.572 331.596 412.579 351.069 401.637Z" fill="#307FE2"/>
<path d="M351.069 401.637C352.239 423.272 348.693 460.535 345.997 479.498C343.146 486.644 282.471 464.394 284.083 460.092C285.696 455.789 289.734 449.485 291.728 444.421C293.096 440.946 328.019 457.314 329.31 451.443C330.602 445.572 331.596 412.579 351.069 401.637Z" fill="url(#paint4_linear_1_626)"/>
<path d="M351.069 401.637C352.239 423.272 348.693 460.535 345.997 479.498C343.146 486.644 282.471 464.394 284.083 460.092C285.696 455.789 289.734 449.485 291.728 444.421C293.096 440.946 328.019 457.314 329.31 451.443C330.602 445.572 331.596 412.579 351.069 401.637Z" fill="#2773D9"/>
<path opacity="0.35" fill-rule="evenodd" clip-rule="evenodd" d="M348.167 403.294C343.789 415.083 342.572 432.024 344.55 444.873C345.536 451.282 346.064 456.91 345.215 461.517C344.371 466.109 342.162 469.679 337.658 471.998C335.99 472.857 334.448 472.75 332.823 472.157C331.614 471.715 330.381 471.013 329.025 470.243C328.537 469.964 328.032 469.677 327.507 469.391C323.561 467.233 318.62 465.175 311.243 467.445C305.493 469.214 299.784 467.374 295.233 464.513C290.676 461.65 287.328 457.794 286.301 455.617L285.895 455.809C286.968 458.085 290.388 461.999 294.994 464.893C299.604 467.791 305.452 469.696 311.375 467.874C318.589 465.654 323.398 467.655 327.291 469.784C327.797 470.061 328.291 470.341 328.773 470.616C330.14 471.393 331.423 472.123 332.669 472.578C334.376 473.201 336.055 473.328 337.864 472.397C342.512 470.005 344.793 466.305 345.654 461.599C346.522 456.909 345.975 451.213 344.989 444.805C343.023 432.02 344.241 415.157 348.588 403.45L348.167 403.294ZM338.863 416.37C339.006 415.611 339.138 414.913 339.252 414.284L338.811 414.204C338.697 414.829 338.566 415.525 338.423 416.282C337.651 420.374 336.544 426.243 335.963 432.247C335.275 439.351 335.317 446.701 337.557 451.538C340.19 457.219 339.125 461.148 336.752 463.087C334.363 465.038 330.56 465.055 327.535 462.737C325.898 461.482 323.298 459.945 319.919 459.492C316.535 459.037 312.392 459.671 307.68 462.727C306.476 463.508 304.58 463.643 302.415 463.224C300.261 462.807 297.884 461.849 295.754 460.505C293.624 459.161 291.756 457.44 290.605 455.506C289.456 453.576 289.025 451.441 289.744 449.243L289.317 449.104C288.549 451.45 289.019 453.719 290.22 455.736C291.417 457.747 293.344 459.515 295.515 460.885C297.687 462.255 300.115 463.236 302.33 463.665C304.535 464.091 306.574 463.979 307.924 463.103C312.552 460.103 316.588 459.497 319.859 459.936C323.135 460.376 325.664 461.868 327.262 463.093C330.426 465.519 334.462 465.537 337.036 463.434C339.625 461.318 340.647 457.139 337.965 451.349C335.78 446.633 335.723 439.393 336.41 432.291C336.989 426.308 338.091 420.463 338.863 416.37Z" fill="white"/>
<path d="M291.728 444.421C289.734 449.486 285.696 455.79 284.083 460.092C283.807 460.829 285.358 462.092 288.132 463.644C292.586 460.346 296.437 449.725 297.805 444.827C294.42 443.911 292.064 443.569 291.728 444.421Z" fill="#105CC1"/>
<path d="M416.989 550.113C419.103 549.131 426.237 534.922 430.014 525.039L421.449 518.176C409.405 522.218 404.415 534.27 407.439 533.774C410.462 533.278 410.741 534.911 408.139 538.342C398.144 551.499 414.079 551.467 416.989 550.113Z" fill="#FCC4AC"/>
<path d="M455.303 476.415C460.631 458.852 443.312 418.057 430.014 407.419C430.014 411.763 429.182 431.862 428.731 458.55C436.363 472.225 417.547 513.825 415.789 517.334C414.025 520.843 429.396 533.958 431.908 528.883C434.421 523.808 449.311 496.162 455.303 476.415Z" fill="#307FE2"/>
<path d="M455.303 476.415C460.631 458.852 443.312 418.057 430.014 407.419C430.014 411.763 429.182 431.862 428.731 458.55C436.363 472.225 417.547 513.825 415.789 517.334C414.025 520.843 429.396 533.958 431.908 528.883C434.421 523.808 449.311 496.162 455.303 476.415Z" fill="url(#paint5_linear_1_626)"/>
<path d="M455.303 476.415C460.631 458.852 443.312 418.057 430.014 407.419C430.014 411.763 429.182 431.862 428.731 458.55C436.363 472.225 417.547 513.825 415.789 517.334C414.025 520.843 429.396 533.958 431.908 528.883C434.421 523.808 449.311 496.162 455.303 476.415Z" fill="#2773D9"/>
<path opacity="0.35" fill-rule="evenodd" clip-rule="evenodd" d="M431.906 419.065C431.187 418.175 430.528 417.36 429.958 416.634L429.601 416.911C430.177 417.646 430.848 418.468 431.573 419.362C433.907 422.242 436.859 425.877 439.353 429.81C442.632 434.97 445.091 440.583 444.402 445.61C443.951 448.856 444.657 452.243 445.81 455.625C446.605 457.968 447.615 460.327 448.607 462.642C449.047 463.665 449.486 464.678 449.896 465.679C451.244 468.958 452.337 472.098 452.515 474.987C452.687 477.861 451.951 480.481 449.629 482.742C445.162 487.1 444.242 491.043 443.357 494.806C443.244 495.297 443.131 495.786 443.006 496.271C442.484 498.371 441.83 500.423 440.423 502.498C439.015 504.574 436.847 506.687 433.278 508.888C431.888 509.744 430.629 511.356 429.554 513.279C428.473 515.209 427.558 517.478 426.875 519.678C426.186 521.879 425.723 524.02 425.545 525.696C425.455 526.532 425.432 527.262 425.497 527.83C425.515 528.008 425.545 528.173 425.586 528.323C423.977 527.407 422.284 526.153 420.769 524.798C419.95 521.078 420.324 516.616 421.732 512.69C423.145 508.736 425.58 505.365 428.829 503.827C431.846 502.4 433.438 500.605 434.293 498.56C435.137 496.529 435.244 494.272 435.321 491.954C435.327 491.86 435.327 491.765 435.333 491.67C435.404 489.429 435.481 487.127 436.17 484.84C436.883 482.466 438.255 480.102 440.981 477.866C443.689 475.648 444.604 473.397 444.432 471.113C444.271 468.854 443.048 466.602 441.599 464.366C441.141 463.66 440.66 462.957 440.185 462.253C439.134 460.709 438.077 459.165 437.263 457.598C436.075 455.325 435.422 453.056 435.998 450.759C438.938 439.038 431.799 431.472 429.554 429.385L429.245 429.714C431.46 431.769 438.439 439.176 435.558 450.65C434.947 453.103 435.659 455.492 436.865 457.805C437.691 459.397 438.771 460.978 439.829 462.533C440.31 463.231 440.779 463.924 441.224 464.61C442.674 466.843 443.832 469.011 443.986 471.146C444.141 473.255 443.321 475.373 440.702 477.519C437.898 479.812 436.479 482.253 435.742 484.711C435.036 487.055 434.958 489.41 434.881 491.639C434.881 491.739 434.875 491.84 434.875 491.939C434.792 494.269 434.685 496.444 433.877 498.388C433.076 500.316 431.567 502.036 428.639 503.421C425.242 505.028 422.741 508.523 421.31 512.539C419.873 516.558 419.48 521.139 420.348 524.967L420.365 525.036L420.419 525.084C422.177 526.664 424.184 528.121 426.038 529.083L426.275 528.7C426.21 528.656 426.138 528.567 426.079 528.408C426.02 528.25 425.972 528.04 425.943 527.78C425.883 527.258 425.901 526.564 425.99 525.744C426.162 524.104 426.62 521.992 427.303 519.813C427.98 517.633 428.882 515.394 429.946 513.499C431.009 511.597 432.22 510.066 433.515 509.27C437.12 507.044 439.342 504.889 440.797 502.75C442.246 500.611 442.917 498.499 443.446 496.38C443.564 495.89 443.683 495.398 443.796 494.905C444.675 491.152 445.572 487.326 449.943 483.063C452.373 480.697 453.139 477.942 452.961 474.959C452.782 471.99 451.66 468.79 450.312 465.508C449.896 464.494 449.456 463.472 449.011 462.446C448.025 460.138 447.021 457.807 446.231 455.481C445.091 452.124 444.408 448.816 444.842 445.671C445.56 440.474 443.018 434.742 439.734 429.569C437.221 425.612 434.246 421.947 431.906 419.065Z" fill="white"/>
<path d="M424.188 496.56C428.916 482.912 433.044 466.276 428.732 458.55C440.314 466.67 431.517 484.839 424.188 496.56Z" fill="#105CC1"/>
<path d="M415.789 517.334C414.025 520.843 429.396 533.959 431.908 528.884C432.104 528.493 432.372 527.968 432.698 527.323C429.016 526.5 420.725 522.835 416.983 514.758C416.407 516.044 415.985 516.935 415.789 517.334Z" fill="#307FE2"/>
<path d="M415.789 517.334C414.025 520.843 429.396 533.959 431.908 528.884C432.104 528.493 432.372 527.968 432.698 527.323C429.016 526.5 420.725 522.835 416.983 514.758C416.407 516.044 415.985 516.935 415.789 517.334Z" fill="url(#paint6_linear_1_626)"/>
<path d="M415.789 517.334C414.025 520.843 429.396 533.959 431.908 528.884C432.104 528.493 432.372 527.968 432.698 527.323C429.016 526.5 420.725 522.835 416.983 514.758C416.407 516.044 415.985 516.935 415.789 517.334Z" fill="#105CC1"/>
<path d="M306.638 355.253H229.784C226.389 355.253 223.637 358.004 223.637 361.399V378.822C223.637 382.216 226.389 384.968 229.784 384.968H292.415L311.586 391.199L306.314 384.968H306.638C310.032 384.968 312.784 382.216 312.784 378.822V361.399C312.784 358.004 310.032 355.253 306.638 355.253Z" fill="#8BBAFA"/>
<path fill-rule="evenodd" clip-rule="evenodd" d="M244.246 372.507C245.834 372.507 247.122 371.219 247.122 369.631C247.122 368.043 245.834 366.755 244.246 366.755C242.658 366.755 241.371 368.043 241.371 369.631C241.371 371.219 242.658 372.507 244.246 372.507ZM260.542 372.507C262.13 372.507 263.418 371.219 263.418 369.631C263.418 368.043 262.13 366.755 260.542 366.755C258.954 366.755 257.666 368.043 257.666 369.631C257.666 371.219 258.954 372.507 260.542 372.507ZM279.234 369.631C279.234 371.219 277.947 372.507 276.358 372.507C274.77 372.507 273.483 371.219 273.483 369.631C273.483 368.043 274.77 366.755 276.358 366.755C277.947 366.755 279.234 368.043 279.234 369.631ZM292.175 372.507C293.763 372.507 295.051 371.219 295.051 369.631C295.051 368.043 293.763 366.755 292.175 366.755C290.587 366.755 289.299 368.043 289.299 369.631C289.299 371.219 290.587 372.507 292.175 372.507Z" fill="white"/>
<defs>
<filter id="filter0_d_1_626" x="0" y="0.586914" width="311.318" height="311.318" filterUnits="userSpaceOnUse" color-interpolation-filters="sRGB">
<feFlood flood-opacity="0" result="BackgroundImageFix"/>
<feColorMatrix in="SourceAlpha" type="matrix" values="0 0 0 0 0 0 0 0 0 0 0 0 0 0 0 0 0 0 127 0" result="hardAlpha"/>
<feOffset dy="-17"/>
<feGaussianBlur stdDeviation="29"/>
<feColorMatrix type="matrix" values="0 0 0 0 0.696557 0 0 0 0 0.836898 0 0 0 0 0.818186 0 0 0 0.05 0"/>
<feBlend mode="normal" in2="BackgroundImageFix" result="effect1_dropShadow_1_626"/>
<feBlend mode="normal" in="SourceGraphic" in2="effect1_dropShadow_1_626" result="shape"/>
</filter>
<linearGradient id="paint0_linear_1_626" x1="544.728" y1="99.5746" x2="548.601" y2="123.459" gradientUnits="userSpaceOnUse">
<stop stop-color="#F4AF8A"/>
<stop offset="1" stop-color="#F9C0A1" stop-opacity="0"/>
</linearGradient>
<linearGradient id="paint1_linear_1_626" x1="380.268" y1="386.008" x2="389.961" y2="390.958" gradientUnits="userSpaceOnUse">
<stop stop-color="#F3AD8F"/>
<stop offset="1" stop-color="#FCC4AC" stop-opacity="0"/>
</linearGradient>
<linearGradient id="paint2_linear_1_626" x1="415.613" y1="515.671" x2="391.369" y2="503.271" gradientUnits="userSpaceOnUse">
<stop stop-color="#026CF0"/>
<stop offset="1" stop-color="#307FE2" stop-opacity="0"/>
</linearGradient>
<linearGradient id="paint3_linear_1_626" x1="359.041" y1="365.17" x2="378.136" y2="367.307" gradientUnits="userSpaceOnUse">
<stop stop-color="#FEA568"/>
<stop offset="1" stop-color="#F4B88E"/>
</linearGradient>
<linearGradient id="paint4_linear_1_626" x1="323.668" y1="479.603" x2="324.922" y2="469.216" gradientUnits="userSpaceOnUse">
<stop stop-color="#0154F7"/>
<stop offset="1" stop-color="#307FE2" stop-opacity="0"/>
</linearGradient>
<linearGradient id="paint5_linear_1_626" x1="454.317" y1="480.009" x2="445.67" y2="476.359" gradientUnits="userSpaceOnUse">
<stop stop-color="#0071FF"/>
<stop offset="1" stop-color="#307FE2" stop-opacity="0"/>
</linearGradient>
<linearGradient id="paint6_linear_1_626" x1="454.317" y1="480.009" x2="445.67" y2="476.359" gradientUnits="userSpaceOnUse">
<stop stop-color="#0071FF"/>
<stop offset="1" stop-color="#307FE2" stop-opacity="0"/>
</linearGradient>
</defs>
</svg>
