<svg width="28" height="29" viewBox="0 0 28 29" fill="none" xmlns="http://www.w3.org/2000/svg">
<path d="M14.4825 21.085L19.9988 24.58C20.704 25.0267 21.5794 24.3623 21.3702 23.5392L19.7764 17.2695C19.7315 17.0949 19.7368 16.9112 19.7917 16.7394C19.8466 16.5677 19.9489 16.4149 20.0868 16.2987L25.0335 12.1815C25.6835 11.6405 25.348 10.5618 24.5129 10.5076L18.0528 10.0883C17.8788 10.0759 17.7119 10.0143 17.5716 9.91067C17.4312 9.80706 17.3232 9.66572 17.2601 9.50309L14.8507 3.43573C14.7852 3.26312 14.6688 3.11452 14.5168 3.00966C14.3649 2.90479 14.1846 2.84863 14 2.84863C13.8154 2.84863 13.6351 2.90479 13.4832 3.00966C13.3312 3.11452 13.2148 3.26312 13.1493 3.43573L10.74 9.50309C10.6768 9.66572 10.5688 9.80706 10.4285 9.91067C10.2881 10.0143 10.1212 10.0759 9.94721 10.0883L3.4871 10.5076C2.65201 10.5618 2.31653 11.6405 2.96651 12.1815L7.91325 16.2987C8.0511 16.4149 8.15336 16.5677 8.20827 16.7394C8.26317 16.9112 8.26849 17.0949 8.2236 17.2695L6.74553 23.0839C6.49444 24.0716 7.54501 24.869 8.39117 24.3329L13.5175 21.085C13.6617 20.9932 13.8291 20.9445 14 20.9445C14.1709 20.9445 14.3383 20.9932 14.4825 21.085V21.085Z" stroke="#217BF4" stroke-width="1.5" stroke-linecap="round" stroke-linejoin="round"/>
</svg>
