<svg width="66" height="66" viewBox="0 0 66 66" fill="none" xmlns="http://www.w3.org/2000/svg">
<rect width="66" height="66" rx="24" fill="url(#paint0_linear_54_198)"/>
<path fill-rule="evenodd" clip-rule="evenodd" d="M33.1936 33.7499C35.8371 33.7499 37.9801 31.6069 37.9801 28.9633C37.9801 26.3198 35.8371 24.1768 33.1936 24.1768C30.55 24.1768 28.407 26.3198 28.407 28.9633C28.407 31.6069 30.55 33.7499 33.1936 33.7499Z" fill="white"/>
<path fill-rule="evenodd" clip-rule="evenodd" d="M37.3475 33.2143C36.2713 34.2404 34.8063 34.8718 33.1923 34.8718C31.5783 34.8718 30.1133 34.2404 29.0371 33.2143C28.8517 33.1683 28.6664 33.1229 28.4864 33.1C28.3064 33.077 28.1323 33.077 27.97 33.1021C27.8081 33.1267 27.6586 33.1769 27.4839 33.2394C27.3093 33.3014 27.1101 33.3761 26.8607 33.5257C26.6118 33.6753 26.3121 33.8996 26.0259 34.2741C25.7391 34.6474 25.4651 35.1714 25.2157 35.7948C24.9662 36.4176 24.7419 37.1409 24.6175 37.839C24.493 38.5366 24.4679 39.2102 24.4556 39.7209C24.4428 40.232 24.4428 40.5814 24.493 40.9179C24.5427 41.2544 24.642 41.5781 24.8669 41.9024C25.0912 42.2266 25.44 42.5508 25.8512 42.7997C26.2625 43.0492 26.7362 43.2239 27.3846 43.3109C28.0324 43.398 28.8549 43.398 29.8521 43.398H32.7437H33.1923H33.6409H36.5325C37.5296 43.398 38.3521 43.398 39 43.3109C39.6484 43.2239 40.1221 43.0492 40.5334 42.7997C40.9446 42.5508 41.2934 42.2266 41.5177 41.9024C41.7425 41.5781 41.8419 41.2544 41.8915 40.9179C41.9417 40.5814 41.9417 40.232 41.9289 39.7209C41.9166 39.2102 41.8915 38.5366 41.7671 37.839C41.6427 37.1409 41.4183 36.4176 41.1689 35.7948C40.9195 35.1714 40.6455 34.6474 40.3587 34.2741C40.0724 33.8996 39.7728 33.6753 39.5239 33.5257C39.2745 33.3761 39.0753 33.3014 38.9006 33.2394C38.726 33.1769 38.5764 33.1267 38.4146 33.1021C38.2523 33.077 38.0781 33.077 37.8982 33.1C37.7182 33.1229 37.5328 33.1683 37.3475 33.2143Z" fill="white"/>
<path fill-rule="evenodd" clip-rule="evenodd" d="M38.2929 31.3222C39.1436 32.0988 40.2763 32.5732 41.519 32.5732C44.1618 32.5732 46.3043 30.4301 46.3043 27.7866C46.3043 25.143 44.1618 23 41.519 23C39.8218 23 38.3303 23.884 37.4812 25.2168C38.4392 26.0917 39.0406 27.3523 39.0406 28.7523C39.0406 29.6978 38.7661 30.5802 38.2929 31.3222Z" fill="white"/>
<path fill-rule="evenodd" clip-rule="evenodd" d="M27.7071 31.3222C26.8564 32.0988 25.7237 32.5732 24.481 32.5732C21.8382 32.5732 19.6957 30.4301 19.6957 27.7866C19.6957 25.143 21.8382 23 24.481 23C26.1782 23 27.6697 23.884 28.5188 25.2168C27.5608 26.0917 26.9594 27.3523 26.9594 28.7523C26.9594 29.6978 27.2339 30.5802 27.7071 31.3222Z" fill="white"/>
<path fill-rule="evenodd" clip-rule="evenodd" d="M45.4097 32.2143C44.3652 33.2094 42.9552 33.8339 41.3977 33.8702L41.5697 34.0764C41.8567 34.4497 42.1308 34.9737 42.3803 35.5971C42.6298 36.2199 42.8542 36.9432 42.9787 37.6413C43.1032 38.3389 43.1283 39.0125 43.1406 39.5232C43.1534 40.0343 43.1534 40.3837 43.1032 40.7202C43.0535 41.0567 42.9541 41.3804 42.7292 41.7047C42.5619 41.9461 42.3258 42.1881 42.0463 42.398H44.5944C45.5919 42.398 46.4147 42.398 47.0628 42.3109C47.7115 42.2239 48.1854 42.0492 48.5968 41.7997C49.0082 41.5508 49.3571 41.2266 49.5815 40.9024C49.8064 40.5781 49.9058 40.2544 49.9555 39.9179C50.0057 39.5814 50.0057 39.232 49.9929 38.7209C49.9806 38.2102 49.9555 37.5366 49.831 36.839C49.7065 36.1409 49.4821 35.4176 49.2326 34.7948C48.9831 34.1714 48.709 33.6474 48.4221 33.2741C48.1357 32.8996 47.836 32.6753 47.587 32.5257C47.3375 32.3761 47.1382 32.3014 46.9635 32.2394C46.7887 32.1769 46.6391 32.1267 46.4772 32.1021C46.3148 32.077 46.1406 32.077 45.9606 32.1C45.7805 32.1229 45.5951 32.1683 45.4097 32.2143Z" fill="white"/>
<path fill-rule="evenodd" clip-rule="evenodd" d="M20.5903 32.2143C21.6348 33.2094 23.0448 33.8339 24.6023 33.8702L24.4303 34.0764C24.1433 34.4497 23.8692 34.9737 23.6197 35.5971C23.3702 36.2199 23.1458 36.9432 23.0213 37.6413C22.8968 38.3389 22.8717 39.0125 22.8594 39.5232C22.8466 40.0343 22.8466 40.3837 22.8968 40.7202C22.9465 41.0567 23.0459 41.3804 23.2708 41.7047C23.4381 41.9461 23.6742 42.1881 23.9537 42.398H21.4056C20.4081 42.398 19.5853 42.398 18.9372 42.3109C18.2885 42.2239 17.8146 42.0492 17.4032 41.7997C16.9918 41.5508 16.6429 41.2266 16.4185 40.9024C16.1936 40.5781 16.0942 40.2544 16.0445 39.9179C15.9943 39.5814 15.9943 39.232 16.0071 38.7209C16.0194 38.2102 16.0445 37.5366 16.169 36.839C16.2935 36.1409 16.5179 35.4176 16.7674 34.7948C17.0169 34.1714 17.291 33.6474 17.5779 33.2741C17.8643 32.8996 18.164 32.6753 18.413 32.5257C18.6625 32.3761 18.8618 32.3014 19.0365 32.2394C19.2113 32.1769 19.3609 32.1267 19.5228 32.1021C19.6852 32.077 19.8594 32.077 20.0394 32.1C20.2195 32.1229 20.4049 32.1683 20.5903 32.2143Z" fill="white"/>
<defs>
<linearGradient id="paint0_linear_54_198" x1="13.5" y1="2.86509e-07" x2="45" y2="66" gradientUnits="userSpaceOnUse">
<stop stop-color="#FF858A"/>
<stop offset="1" stop-color="#F04148"/>
</linearGradient>
</defs>
</svg>
