<svg width="106" height="107" viewBox="0 0 106 107" fill="none" xmlns="http://www.w3.org/2000/svg">
<g filter="url(#filter0_d_1_790)">
<g filter="url(#filter1_d_1_790)">
<rect x="20" y="12.2236" width="66" height="66" rx="24" fill="url(#paint0_linear_1_790)"/>
</g>
<path fill-rule="evenodd" clip-rule="evenodd" d="M53.1935 45.9734C55.837 45.9734 57.9801 43.8304 57.9801 41.1869C57.9801 38.5433 55.837 36.4003 53.1935 36.4003C50.5499 36.4003 48.4069 38.5433 48.4069 41.1869C48.4069 43.8304 50.5499 45.9734 53.1935 45.9734Z" fill="white"/>
<path fill-rule="evenodd" clip-rule="evenodd" d="M57.3476 45.4377C56.2714 46.4638 54.8064 47.0952 53.1924 47.0952C51.5784 47.0952 50.1134 46.4638 49.0372 45.4377C48.8519 45.3918 48.6665 45.3464 48.4865 45.3234C48.3066 45.3004 48.1324 45.3004 47.9701 45.3256C47.8083 45.3501 47.6587 45.4003 47.4841 45.4628C47.3094 45.5248 47.1102 45.5996 46.8608 45.7491C46.6119 45.8987 46.3123 46.1231 46.026 46.4975C45.7392 46.8709 45.4652 47.3949 45.2158 48.0182C44.9664 48.6411 44.742 49.3643 44.6176 50.0625C44.4932 50.7601 44.4681 51.4336 44.4558 51.9443C44.443 52.4555 44.443 52.8048 44.4932 53.1413C44.5428 53.4779 44.6422 53.8016 44.867 54.1258C45.0913 54.45 45.4401 54.7743 45.8513 55.0232C46.2626 55.2726 46.7363 55.4473 47.3847 55.5344C48.0326 55.6214 48.8551 55.6214 49.8522 55.6214H52.7438H53.1924H53.641H56.5326C57.5298 55.6214 58.3523 55.6214 59.0001 55.5344C59.6485 55.4473 60.1222 55.2726 60.5335 55.0232C60.9447 54.7743 61.2935 54.45 61.5178 54.1258C61.7427 53.8016 61.842 53.4779 61.8917 53.1413C61.9419 52.8048 61.9419 52.4555 61.9291 51.9443C61.9168 51.4336 61.8917 50.7601 61.7672 50.0625C61.6428 49.3643 61.4185 48.6411 61.169 48.0182C60.9196 47.3949 60.6456 46.8709 60.3588 46.4975C60.0726 46.1231 59.7729 45.8987 59.524 45.7491C59.2746 45.5996 59.0754 45.5248 58.9008 45.4628C58.7261 45.4003 58.5766 45.3501 58.4147 45.3256C58.2524 45.3004 58.0783 45.3004 57.8983 45.3234C57.7183 45.3464 57.533 45.3918 57.3476 45.4377Z" fill="white"/>
<path fill-rule="evenodd" clip-rule="evenodd" d="M58.293 43.5458C59.1437 44.3224 60.2763 44.7968 61.519 44.7968C64.1619 44.7968 66.3044 42.6537 66.3044 40.0102C66.3044 37.3666 64.1619 35.2236 61.519 35.2236C59.8219 35.2236 58.3304 36.1076 57.4813 37.4403C58.4393 38.3153 59.0406 39.5759 59.0406 40.9759C59.0406 41.9214 58.7661 42.8038 58.293 43.5458Z" fill="white"/>
<path fill-rule="evenodd" clip-rule="evenodd" d="M47.707 43.5458C46.8563 44.3224 45.7236 44.7968 44.481 44.7968C41.8381 44.7968 39.6956 42.6537 39.6956 40.0102C39.6956 37.3666 41.8381 35.2236 44.481 35.2236C46.1781 35.2236 47.6696 36.1076 48.5187 37.4403C47.5607 38.3153 46.9594 39.5759 46.9594 40.9759C46.9594 41.9214 47.2339 42.8038 47.707 43.5458Z" fill="white"/>
<path fill-rule="evenodd" clip-rule="evenodd" d="M65.4096 44.4378C64.3651 45.4329 62.9551 46.0574 61.3976 46.0937L61.5697 46.2999C61.8566 46.6733 62.1307 47.1973 62.3802 47.8206C62.6297 48.4435 62.8541 49.1667 62.9786 49.8649C63.1031 50.5625 63.1282 51.236 63.1405 51.7467C63.1533 52.2579 63.1533 52.6072 63.1031 52.9437C63.0534 53.2803 62.954 53.604 62.7291 53.9282C62.5619 54.1696 62.3257 54.4116 62.0463 54.6215H64.5943C65.5918 54.6215 66.4147 54.6215 67.0628 54.5345C67.7114 54.4474 68.1853 54.2727 68.5967 54.0233C69.0081 53.7743 69.357 53.4501 69.5814 53.1259C69.8064 52.8016 69.9057 52.4779 69.9554 52.1414C70.0056 51.8049 70.0056 51.4556 69.9928 50.9444C69.9805 50.4337 69.9554 49.7602 69.8309 49.0625C69.7064 48.3644 69.482 47.6412 69.2325 47.0183C68.983 46.395 68.7089 45.871 68.422 45.4976C68.1356 45.1231 67.8359 44.8988 67.5869 44.7492C67.3374 44.5997 67.1381 44.5249 66.9634 44.4629C66.7887 44.4004 66.6391 44.3502 66.4772 44.3256C66.3147 44.3005 66.1406 44.3005 65.9605 44.3235C65.7804 44.3465 65.595 44.3919 65.4096 44.4378Z" fill="white"/>
<path fill-rule="evenodd" clip-rule="evenodd" d="M40.5903 44.4378C41.6349 45.4329 43.0449 46.0574 44.6023 46.0937L44.4303 46.2999C44.1434 46.6733 43.8693 47.1973 43.6198 47.8206C43.3703 48.4435 43.1459 49.1667 43.0214 49.8649C42.8969 50.5625 42.8718 51.236 42.8595 51.7467C42.8466 52.2579 42.8466 52.6072 42.8969 52.9437C42.9466 53.2803 43.0459 53.604 43.2709 53.9282C43.4381 54.1696 43.6743 54.4116 43.9537 54.6215H41.4057C40.4081 54.6215 39.5853 54.6215 38.9372 54.5345C38.2886 54.4474 37.8147 54.2727 37.4033 54.0233C36.9918 53.7743 36.643 53.4501 36.4186 53.1259C36.1936 52.8016 36.0942 52.4779 36.0445 52.1414C35.9943 51.8049 35.9943 51.4556 36.0071 50.9444C36.0194 50.4337 36.0445 49.7602 36.169 49.0625C36.2935 48.3644 36.5179 47.6412 36.7674 47.0183C37.017 46.395 37.2911 45.871 37.578 45.4976C37.8644 45.1231 38.1641 44.8988 38.4131 44.7492C38.6626 44.5997 38.8619 44.5249 39.0366 44.4629C39.2113 44.4004 39.3609 44.3502 39.5228 44.3256C39.6852 44.3005 39.8594 44.3005 40.0395 44.3235C40.2195 44.3465 40.4049 44.3919 40.5903 44.4378Z" fill="white"/>
</g>
<defs>
<filter id="filter0_d_1_790" x="16" y="12.2236" width="74" height="74" filterUnits="userSpaceOnUse" color-interpolation-filters="sRGB">
<feFlood flood-opacity="0" result="BackgroundImageFix"/>
<feColorMatrix in="SourceAlpha" type="matrix" values="0 0 0 0 0 0 0 0 0 0 0 0 0 0 0 0 0 0 127 0" result="hardAlpha"/>
<feOffset dy="4"/>
<feGaussianBlur stdDeviation="2"/>
<feComposite in2="hardAlpha" operator="out"/>
<feColorMatrix type="matrix" values="0 0 0 0 0 0 0 0 0 0 0 0 0 0 0 0 0 0 0.25 0"/>
<feBlend mode="normal" in2="BackgroundImageFix" result="effect1_dropShadow_1_790"/>
<feBlend mode="normal" in="SourceGraphic" in2="effect1_dropShadow_1_790" result="shape"/>
</filter>
<filter id="filter1_d_1_790" x="0" y="0.223633" width="106" height="106" filterUnits="userSpaceOnUse" color-interpolation-filters="sRGB">
<feFlood flood-opacity="0" result="BackgroundImageFix"/>
<feColorMatrix in="SourceAlpha" type="matrix" values="0 0 0 0 0 0 0 0 0 0 0 0 0 0 0 0 0 0 127 0" result="hardAlpha"/>
<feMorphology radius="2" operator="erode" in="SourceAlpha" result="effect1_dropShadow_1_790"/>
<feOffset dy="8"/>
<feGaussianBlur stdDeviation="11"/>
<feColorMatrix type="matrix" values="0 0 0 0 0.971137 0 0 0 0 0.341921 0 0 0 0 0.36709 0 0 0 0.3 0"/>
<feBlend mode="normal" in2="BackgroundImageFix" result="effect1_dropShadow_1_790"/>
<feBlend mode="normal" in="SourceGraphic" in2="effect1_dropShadow_1_790" result="shape"/>
</filter>
<linearGradient id="paint0_linear_1_790" x1="33.5" y1="12.2236" x2="65" y2="78.2236" gradientUnits="userSpaceOnUse">
<stop stop-color="#FF858A"/>
<stop offset="1" stop-color="#F04148"/>
</linearGradient>
</defs>
</svg>
