<svg width="66" height="66" viewBox="0 0 66 66" fill="none" xmlns="http://www.w3.org/2000/svg">
<rect width="66" height="66" rx="24" fill="url(#paint0_linear_54_208)"/>
<path d="M24.2891 23.8617L26.4393 26.0119C26.5736 25.2503 26.9768 24.5336 27.5592 23.996C28.9926 22.6522 31.322 22.6074 32.7555 23.9513C32.8451 24.0408 32.9347 24.1304 33.0242 24.22C33.6066 24.892 33.965 25.7431 33.965 26.639C33.965 26.8182 33.965 26.9974 33.9202 27.1318C33.8306 27.9829 33.4722 28.7444 32.8451 29.3715C32.3075 29.9091 31.6356 30.2675 30.874 30.4018L33.0242 32.552L35.6224 29.9539C35.6672 29.9091 35.6672 29.9091 35.712 29.9091C35.712 29.9091 35.712 29.9091 35.7568 29.9091C35.8016 29.9091 35.8016 29.9091 35.8464 29.9091C35.8912 29.9091 35.936 29.9091 35.936 29.9091C36.0256 29.9539 36.1152 30.0435 36.1152 30.1779C36.1152 31.029 36.4735 31.7905 37.0559 32.3729C37.683 33 38.4893 33.3136 39.3404 33.3136C39.3404 33.3136 39.3404 33.3136 39.3852 33.3136C39.654 33.3136 39.878 33.2688 40.1468 33.224C40.7291 33.0896 41.2667 32.776 41.6698 32.3281C42.3866 31.5217 42.6553 30.4466 42.4314 29.4163C42.297 28.8788 42.0282 28.386 41.6698 27.9829C41.4459 27.7589 41.1771 27.5349 40.9083 27.4005C40.6395 27.2661 40.3708 27.1765 40.102 27.087C39.9676 27.0422 39.8332 27.0422 39.6988 26.9974C39.6092 26.9974 39.4748 26.9974 39.3852 26.9974C39.2509 26.9974 39.1613 26.9078 39.1165 26.8182C39.0717 26.7286 39.1165 26.5942 39.1613 26.5046L41.7594 23.9065L34.5025 16.6047C33.6962 15.7984 32.3523 15.7984 31.546 16.6047L24.2891 23.8617Z" fill="white"/>
<path d="M49.4177 31.5216L42.1608 24.2646L40.0106 26.4148C40.7721 26.5492 41.4888 26.9524 42.0264 27.4899C43.3703 28.9234 43.415 31.2528 42.0712 32.6863C41.3544 33.4478 40.4137 33.8957 39.3834 33.8957C38.3531 33.9405 37.3676 33.5374 36.6509 32.7758C36.1133 32.2383 35.755 31.5664 35.6206 30.8048L33.4256 32.9998L36.0237 35.598C36.1133 35.6876 36.1133 35.822 36.0685 35.9116C36.0237 36.0011 35.9342 36.0907 35.7998 36.0907C34.9486 36.0907 34.1871 36.4491 33.6048 37.0314C32.9776 37.6586 32.6641 38.4649 32.6641 39.3608C32.6641 40.2119 33.0224 41.0183 33.6944 41.6454C33.8735 41.8246 34.0975 42.0038 34.3663 42.0934C35.531 42.7205 37.054 42.5413 38.0844 41.6006C38.7115 41.0183 39.0699 40.2119 39.0699 39.3608C39.0699 39.2264 39.1595 39.1369 39.249 39.0921C39.3386 39.0473 39.473 39.0921 39.5626 39.1369L42.1608 41.735L49.4177 34.4781C49.8208 34.0749 50.0448 33.5374 50.0448 32.9998C50.0448 32.4175 49.8208 31.9247 49.4177 31.5216Z" fill="white"/>
<path d="M39.6074 39.9882C39.473 40.7498 39.0699 41.4665 38.4875 42.004C37.0541 43.3479 34.7247 43.3927 33.2912 42.0488C32.5297 41.3321 32.0817 40.3914 32.0817 39.3611C32.0817 38.5996 32.3057 37.838 32.7089 37.2109C32.8432 36.9869 33.0224 36.8077 33.2016 36.6286C33.7392 36.091 34.4111 35.7326 35.1726 35.5982L33.0224 33.4033L30.4243 36.0014C30.3347 36.1358 30.2003 36.1358 30.1107 36.091C30.0211 36.0462 29.9315 35.9566 29.9315 35.8222C29.9315 34.9711 29.5732 34.2096 28.9908 33.6272C28.3637 33.0001 27.5573 32.6865 26.6614 32.6865C26.5718 32.6865 26.4375 32.6865 26.3479 32.6865C25.5863 32.7761 24.9144 33.1345 24.3768 33.672C23.5257 34.5679 23.3465 35.9118 23.7497 37.0317C23.7497 37.0765 23.7945 37.1213 23.7945 37.1661C23.7945 37.2109 23.8393 37.2557 23.8393 37.3005C23.9737 37.5693 24.1529 37.838 24.3768 38.062C24.9592 38.6892 25.7655 39.0475 26.6166 39.0475C26.751 39.0475 26.8406 39.1371 26.8854 39.2267C26.9302 39.3163 26.8854 39.4507 26.8406 39.5403L24.2425 42.1384L31.4994 49.3954C32.3057 50.2017 33.6496 50.2017 34.4559 49.3954L41.7128 42.1384L39.6074 39.9882Z" fill="white"/>
<path d="M16.6271 34.4784L23.8841 41.7353L26.0343 39.5851C25.2727 39.4507 24.556 39.0476 24.0184 38.4652C22.6746 37.0318 22.6298 34.7024 23.9736 33.2689C24.6904 32.5074 25.6311 32.0594 26.6614 32.0594C27.6917 32.0594 28.6772 32.4178 29.3939 33.1793C29.9315 33.7169 30.2899 34.3888 30.4242 35.1503L32.5744 33.0001L29.9763 30.402C29.8867 30.3124 29.8867 30.178 29.9315 30.0884C29.9763 29.9988 30.0659 29.9092 30.2003 29.9092C31.0514 29.9092 31.8129 29.5509 32.3953 28.9685C32.4848 28.8789 32.5296 28.7893 32.6192 28.7445C33.112 28.1622 33.336 27.4455 33.336 26.6839C33.336 25.8328 32.9776 25.0265 32.3057 24.3993C31.0962 23.2795 29.1252 23.2795 27.9605 24.4441C27.3333 25.0265 26.975 25.8328 26.975 26.6839C26.975 26.8183 26.8854 26.9079 26.7958 26.9527C26.7062 26.9975 26.5718 26.9527 26.4822 26.9079L23.8841 24.3098L16.6271 31.5219C16.224 31.925 16 32.4178 16 33.0001C16 33.5825 16.224 34.0752 16.6271 34.4784Z" fill="white"/>
<defs>
<linearGradient id="paint0_linear_54_208" x1="13.5" y1="2.86509e-07" x2="45" y2="66" gradientUnits="userSpaceOnUse">
<stop stop-color="#5CA1FE"/>
<stop offset="1" stop-color="#217BF4"/>
</linearGradient>
</defs>
</svg>
