<svg width="106" height="107" viewBox="0 0 106 107" fill="none" xmlns="http://www.w3.org/2000/svg">
<g filter="url(#filter0_d_1_786)">
<rect x="20" y="10.2236" width="66" height="66" rx="24" fill="url(#paint0_linear_1_786)"/>
</g>
<path d="M70 40.1569V49.7466C69.9992 50.44 69.7234 51.1048 69.2331 51.5951C68.7428 52.0854 68.078 52.3612 67.3846 52.362H66.5128V55.8492C66.5127 56.0149 66.4654 56.1771 66.3765 56.3169C66.2875 56.4567 66.1606 56.5683 66.0106 56.6386C65.8605 56.7089 65.6936 56.735 65.5292 56.7139C65.3649 56.6927 65.2099 56.6252 65.0826 56.5192L60.0944 52.362H51.6923C50.9989 52.3612 50.3341 52.0854 49.8438 51.5951C49.3535 51.1048 49.0777 50.44 49.0769 49.7466V48.8748H57.7949C58.9505 48.8734 60.0585 48.4138 60.8756 47.5966C61.6928 46.7794 62.1525 45.6715 62.1538 44.5158V37.5415H67.3846C68.078 37.5422 68.7428 37.818 69.2331 38.3083C69.7234 38.7987 69.9992 39.4634 70 40.1569ZM57.7949 47.1312H45.9908L41.0205 52.9286C40.9046 53.0637 40.7501 53.16 40.5778 53.2047C40.4055 53.2494 40.2237 53.2403 40.0568 53.1786C39.8898 53.1169 39.7458 53.0056 39.6439 52.8596C39.5421 52.7136 39.4874 52.54 39.4872 52.362V47.1312H38.6154C37.922 47.1304 37.2572 46.8547 36.7669 46.3643C36.2766 45.874 36.0008 45.2092 36 44.5158V32.3107C36.0008 31.6173 36.2766 30.9525 36.7669 30.4622C37.2572 29.9719 37.922 29.6961 38.6154 29.6953H57.7949C58.4883 29.6961 59.1531 29.9719 59.6434 30.4622C60.1337 30.9525 60.4095 31.6173 60.4103 32.3107V44.5158C60.4095 45.2092 60.1337 45.874 59.6434 46.3643C59.1531 46.8547 58.4883 47.1304 57.7949 47.1312ZM55.1795 40.1569C55.1795 39.9256 55.0876 39.7039 54.9241 39.5404C54.7607 39.3769 54.5389 39.2851 54.3077 39.2851H42.1026C41.8713 39.2851 41.6496 39.3769 41.4861 39.5404C41.3226 39.7039 41.2308 39.9256 41.2308 40.1569C41.2308 40.3881 41.3226 40.6098 41.4861 40.7733C41.6496 40.9368 41.8713 41.0286 42.1026 41.0286H54.3077C54.5389 41.0286 54.7607 40.9368 54.9241 40.7733C55.0876 40.6098 55.1795 40.3881 55.1795 40.1569ZM55.1795 35.7979C55.1795 35.5667 55.0876 35.3449 54.9241 35.1814C54.7607 35.0179 54.5389 34.9261 54.3077 34.9261H42.1026C41.8713 34.9261 41.6496 35.0179 41.4861 35.1814C41.3226 35.3449 41.2308 35.5667 41.2308 35.7979C41.2308 36.0291 41.3226 36.2508 41.4861 36.4143C41.6496 36.5778 41.8713 36.6697 42.1026 36.6697H54.3077C54.5389 36.6697 54.7607 36.5778 54.9241 36.4143C55.0876 36.2508 55.1795 36.0291 55.1795 35.7979Z" fill="white"/>
<defs>
<filter id="filter0_d_1_786" x="0" y="0.223633" width="106" height="106" filterUnits="userSpaceOnUse" color-interpolation-filters="sRGB">
<feFlood flood-opacity="0" result="BackgroundImageFix"/>
<feColorMatrix in="SourceAlpha" type="matrix" values="0 0 0 0 0 0 0 0 0 0 0 0 0 0 0 0 0 0 127 0" result="hardAlpha"/>
<feMorphology radius="2" operator="erode" in="SourceAlpha" result="effect1_dropShadow_1_786"/>
<feOffset dy="10"/>
<feGaussianBlur stdDeviation="11"/>
<feColorMatrix type="matrix" values="0 0 0 0 0.97947 0 0 0 0 0.730307 0 0 0 0 0.328531 0 0 0 0.3 0"/>
<feBlend mode="normal" in2="BackgroundImageFix" result="effect1_dropShadow_1_786"/>
<feBlend mode="normal" in="SourceGraphic" in2="effect1_dropShadow_1_786" result="shape"/>
</filter>
<linearGradient id="paint0_linear_1_786" x1="33.5" y1="10.2236" x2="65" y2="76.2236" gradientUnits="userSpaceOnUse">
<stop stop-color="#FFD085"/>
<stop offset="1" stop-color="#FFAF2E"/>
</linearGradient>
</defs>
</svg>
