<svg width="106" height="107" viewBox="0 0 106 107" fill="none" xmlns="http://www.w3.org/2000/svg">
<g filter="url(#filter0_d_1_800)">
<rect x="20" y="10.2236" width="66" height="66" rx="24" fill="url(#paint0_linear_1_800)"/>
</g>
<path fill-rule="evenodd" clip-rule="evenodd" d="M47.6349 43.5281C51.1525 43.5281 54.0042 40.6765 54.0042 37.1588C54.0042 33.6412 51.1525 30.7896 47.6349 30.7896C44.1173 30.7896 41.2656 33.6412 41.2656 37.1588C41.2656 40.6765 44.1173 43.5281 47.6349 43.5281Z" fill="white"/>
<path fill-rule="evenodd" clip-rule="evenodd" d="M53.1641 42.8151C51.7321 44.1805 49.7827 45.0207 47.635 45.0207C45.4873 45.0207 43.5378 44.1805 42.1058 42.8151C41.8592 42.754 41.6126 42.6936 41.3731 42.663C41.1336 42.6325 40.9019 42.6325 40.6859 42.6659C40.4705 42.6986 40.2715 42.7654 40.0391 42.8485C39.8067 42.931 39.5416 43.0305 39.2098 43.2295C38.8786 43.4285 38.4799 43.7271 38.099 44.2253C37.7173 44.7222 37.3527 45.4194 37.0208 46.2489C36.6889 47.0777 36.3905 48.0401 36.2249 48.9691C36.0593 49.8973 36.0259 50.7936 36.0095 51.4731C35.9925 52.1533 35.9925 52.6182 36.0593 53.066C36.1254 53.5138 36.2576 53.9445 36.5568 54.3759C36.8552 54.8074 37.3193 55.2388 37.8666 55.57C38.4138 55.902 39.0442 56.1344 39.9069 56.2503C40.769 56.3661 41.8635 56.3661 43.1903 56.3661H47.038H47.635H48.2319H52.0796C53.4064 56.3661 54.5009 56.3661 55.363 56.2503C56.2257 56.1344 56.8561 55.902 57.4034 55.57C57.9506 55.2388 58.4147 54.8074 58.7132 54.3759C59.0124 53.9445 59.1445 53.5138 59.2106 53.066C59.2774 52.6182 59.2774 52.1533 59.2604 51.4731C59.244 50.7936 59.2106 49.8973 59.045 48.9691C58.8795 48.0401 58.581 47.0777 58.2491 46.2489C57.9172 45.4194 57.5526 44.7222 57.171 44.2253C56.79 43.7271 56.3913 43.4285 56.0602 43.2295C55.7283 43.0305 55.4632 42.931 55.2308 42.8485C54.9984 42.7654 54.7994 42.6986 54.5841 42.6659C54.368 42.6325 54.1363 42.6325 53.8968 42.663C53.6573 42.6936 53.4107 42.754 53.1641 42.8151Z" fill="white"/>
<path fill-rule="evenodd" clip-rule="evenodd" d="M54.4239 40.2975C55.5558 41.331 57.063 41.9622 58.7166 41.9622C62.2333 41.9622 65.0843 39.1105 65.0843 35.5929C65.0843 32.0753 62.2333 29.2236 58.7166 29.2236C56.4583 29.2236 54.4736 30.4 53.3438 32.1734C54.6186 33.3376 55.4187 35.015 55.4187 36.878C55.4187 38.1361 55.0535 39.3103 54.4239 40.2975Z" fill="white"/>
<path fill-rule="evenodd" clip-rule="evenodd" d="M63.8933 41.4843C62.5034 42.8084 60.6271 43.6393 58.5547 43.6877L58.7836 43.962C59.1654 44.4589 59.5301 45.1561 59.8621 45.9856C60.1942 46.8144 60.4928 47.7768 60.6584 48.7058C60.8241 49.634 60.8575 50.5303 60.8738 51.2098C60.8909 51.89 60.8909 52.3549 60.8241 52.8027C60.758 53.2505 60.6257 53.6812 60.3264 54.1126C60.1039 54.4339 59.7896 54.7559 59.4178 55.0352H62.8084C64.1357 55.0352 65.2306 55.0352 66.093 54.9194C66.9561 54.8035 67.5867 54.5711 68.1342 54.2392C68.6816 53.9079 69.1459 53.4765 69.4445 53.045C69.7438 52.6136 69.876 52.1829 69.9421 51.7351C70.009 51.2873 70.009 50.8224 69.9919 50.1422C69.9755 49.4627 69.9421 48.5664 69.7765 47.6382C69.6108 46.7092 69.3122 45.7468 68.9802 44.918C68.6482 44.0885 68.2835 43.3913 67.9017 42.8944C67.5206 42.3962 67.1218 42.0977 66.7904 41.8986C66.4584 41.6996 66.1932 41.6001 65.9608 41.5177C65.7283 41.4345 65.5292 41.3677 65.3138 41.335C65.0976 41.3016 64.8659 41.3016 64.6263 41.3321C64.3867 41.3627 64.14 41.4231 63.8933 41.4843Z" fill="white"/>
<defs>
<filter id="filter0_d_1_800" x="0" y="0.223633" width="106" height="106" filterUnits="userSpaceOnUse" color-interpolation-filters="sRGB">
<feFlood flood-opacity="0" result="BackgroundImageFix"/>
<feColorMatrix in="SourceAlpha" type="matrix" values="0 0 0 0 0 0 0 0 0 0 0 0 0 0 0 0 0 0 127 0" result="hardAlpha"/>
<feMorphology radius="2" operator="erode" in="SourceAlpha" result="effect1_dropShadow_1_800"/>
<feOffset dy="10"/>
<feGaussianBlur stdDeviation="11"/>
<feColorMatrix type="matrix" values="0 0 0 0 0.427083 0 0 0 0 0.671455 0 0 0 0 1 0 0 0 0.36 0"/>
<feBlend mode="normal" in2="BackgroundImageFix" result="effect1_dropShadow_1_800"/>
<feBlend mode="normal" in="SourceGraphic" in2="effect1_dropShadow_1_800" result="shape"/>
</filter>
<linearGradient id="paint0_linear_1_800" x1="33.5" y1="10.2236" x2="65" y2="76.2236" gradientUnits="userSpaceOnUse">
<stop stop-color="#5CA1FE"/>
<stop offset="1" stop-color="#217BF4"/>
</linearGradient>
</defs>
</svg>
