<svg width="106" height="107" viewBox="0 0 106 107" fill="none" xmlns="http://www.w3.org/2000/svg">
<g filter="url(#filter0_d_1_779)">
<rect x="20" y="10.2236" width="66" height="66" rx="24" fill="url(#paint0_linear_1_779)"/>
</g>
<path d="M44.2891 34.0853L46.4393 36.2355C46.5736 35.474 46.9768 34.7572 47.5592 34.2197C48.9926 32.8758 51.322 32.831 52.7555 34.1749C52.8451 34.2645 52.9347 34.3541 53.0242 34.4437C53.6066 35.1156 53.965 35.9667 53.965 36.8626C53.965 37.0418 53.965 37.221 53.9202 37.3554C53.8306 38.2065 53.4722 38.968 52.8451 39.5952C52.3075 40.1327 51.6356 40.4911 50.874 40.6255L53.0242 42.7757L55.6224 40.1775C55.6672 40.1327 55.6672 40.1327 55.712 40.1327C55.712 40.1327 55.712 40.1327 55.7568 40.1327C55.8016 40.1327 55.8016 40.1327 55.8464 40.1327C55.8912 40.1327 55.936 40.1327 55.936 40.1327C56.0256 40.1775 56.1152 40.2671 56.1152 40.4015C56.1152 41.2526 56.4735 42.0141 57.0559 42.5965C57.683 43.2236 58.4893 43.5372 59.3404 43.5372C59.3404 43.5372 59.3404 43.5372 59.3852 43.5372C59.654 43.5372 59.878 43.4924 60.1468 43.4476C60.7291 43.3132 61.2667 42.9997 61.6698 42.5517C62.3866 41.7454 62.6553 40.6703 62.4314 39.64C62.297 39.1024 62.0282 38.6097 61.6698 38.2065C61.4459 37.9825 61.1771 37.7585 60.9083 37.6242C60.6395 37.4898 60.3708 37.4002 60.102 37.3106C59.9676 37.2658 59.8332 37.2658 59.6988 37.221C59.6092 37.221 59.4748 37.221 59.3852 37.221C59.2509 37.221 59.1613 37.1314 59.1165 37.0418C59.0717 36.9522 59.1165 36.8178 59.1613 36.7282L61.7594 34.1301L54.5025 26.8284C53.6962 26.0221 52.3523 26.0221 51.546 26.8284L44.2891 34.0853Z" fill="white"/>
<path d="M69.4177 41.7454L62.1608 34.4884L60.0106 36.6386C60.7721 36.773 61.4888 37.1762 62.0264 37.7137C63.3703 39.1472 63.415 41.4766 62.0712 42.91C61.3544 43.6716 60.4137 44.1195 59.3834 44.1195C58.3531 44.1643 57.3676 43.7612 56.6509 42.9996C56.1133 42.4621 55.755 41.7901 55.6206 41.0286L53.4256 43.2236L56.0237 45.8218C56.1133 45.9114 56.1133 46.0457 56.0685 46.1353C56.0237 46.2249 55.9342 46.3145 55.7998 46.3145C54.9486 46.3145 54.1871 46.6729 53.6048 47.2552C52.9776 47.8824 52.6641 48.6887 52.6641 49.5846C52.6641 50.4357 53.0224 51.2421 53.6944 51.8692C53.8735 52.0484 54.0975 52.2276 54.3663 52.3172C55.531 52.9443 57.054 52.7651 58.0844 51.8244C58.7115 51.2421 59.0699 50.4357 59.0699 49.5846C59.0699 49.4502 59.1595 49.3606 59.249 49.3158C59.3386 49.271 59.473 49.3158 59.5626 49.3606L62.1608 51.9588L69.4177 44.7019C69.8208 44.2987 70.0448 43.7612 70.0448 43.2236C70.0448 42.6413 69.8208 42.1485 69.4177 41.7454Z" fill="white"/>
<path d="M59.6074 50.2118C59.473 50.9733 59.0698 51.6901 58.4875 52.2276C57.054 53.5715 54.7246 53.6163 53.2912 52.2724C52.5296 51.5557 52.0817 50.615 52.0817 49.5847C52.0817 48.8231 52.3057 48.0616 52.7088 47.4345C52.8432 47.2105 53.0224 47.0313 53.2016 46.8521C53.7391 46.3146 54.4111 45.9562 55.1726 45.8218L53.0224 43.6268L50.4242 46.225C50.3347 46.3594 50.2003 46.3594 50.1107 46.3146C50.0211 46.2698 49.9315 46.1802 49.9315 46.0458C49.9315 45.1947 49.5731 44.4332 48.9908 43.8508C48.3636 43.2237 47.5573 42.9101 46.6614 42.9101C46.5718 42.9101 46.4374 42.9101 46.3478 42.9101C45.5863 42.9997 44.9144 43.3581 44.3768 43.8956C43.5257 44.7915 43.3465 46.1354 43.7497 47.2553C43.7497 47.3001 43.7945 47.3449 43.7945 47.3897C43.7945 47.4345 43.8393 47.4793 43.8393 47.5241C43.9737 47.7928 44.1528 48.0616 44.3768 48.2856C44.9592 48.9127 45.7655 49.2711 46.6166 49.2711C46.751 49.2711 46.8406 49.3607 46.8854 49.4503C46.9302 49.5399 46.8854 49.6743 46.8406 49.7638L44.2424 52.362L51.4993 59.6189C52.3057 60.4252 53.6495 60.4252 54.4559 59.6189L61.7128 52.362L59.6074 50.2118Z" fill="white"/>
<path d="M36.6271 44.7019L43.8841 51.9588L46.0343 49.8086C45.2727 49.6742 44.556 49.271 44.0184 48.6887C42.6746 47.2552 42.6298 44.9259 43.9736 43.4924C44.6904 42.7309 45.6311 42.2829 46.6614 42.2829C47.6917 42.2829 48.6772 42.6413 49.3939 43.4028C49.9315 43.9403 50.2899 44.6123 50.4242 45.3738L52.5744 43.2236L49.9763 40.6255C49.8867 40.5359 49.8867 40.4015 49.9315 40.3119C49.9763 40.2223 50.0659 40.1327 50.2003 40.1327C51.0514 40.1327 51.8129 39.7743 52.3953 39.192C52.4848 39.1024 52.5296 39.0128 52.6192 38.968C53.112 38.3857 53.336 37.6689 53.336 36.9074C53.336 36.0563 52.9776 35.25 52.3057 34.6228C51.0962 33.5029 49.1252 33.5029 47.9605 34.6676C47.3333 35.25 46.975 36.0563 46.975 36.9074C46.975 37.0418 46.8854 37.1314 46.7958 37.1762C46.7062 37.221 46.5718 37.1762 46.4822 37.1314L43.8841 34.5332L36.6271 41.7454C36.224 42.1485 36 42.6413 36 43.2236C36 43.806 36.224 44.2987 36.6271 44.7019Z" fill="white"/>
<defs>
<filter id="filter0_d_1_779" x="0" y="0.223633" width="106" height="106" filterUnits="userSpaceOnUse" color-interpolation-filters="sRGB">
<feFlood flood-opacity="0" result="BackgroundImageFix"/>
<feColorMatrix in="SourceAlpha" type="matrix" values="0 0 0 0 0 0 0 0 0 0 0 0 0 0 0 0 0 0 127 0" result="hardAlpha"/>
<feMorphology radius="2" operator="erode" in="SourceAlpha" result="effect1_dropShadow_1_779"/>
<feOffset dy="10"/>
<feGaussianBlur stdDeviation="11"/>
<feColorMatrix type="matrix" values="0 0 0 0 0.427083 0 0 0 0 0.671455 0 0 0 0 1 0 0 0 0.36 0"/>
<feBlend mode="normal" in2="BackgroundImageFix" result="effect1_dropShadow_1_779"/>
<feBlend mode="normal" in="SourceGraphic" in2="effect1_dropShadow_1_779" result="shape"/>
</filter>
<linearGradient id="paint0_linear_1_779" x1="33.5" y1="10.2236" x2="65" y2="76.2236" gradientUnits="userSpaceOnUse">
<stop stop-color="#5CA1FE"/>
<stop offset="1" stop-color="#217BF4"/>
</linearGradient>
</defs>
</svg>
