<svg width="106" height="107" viewBox="0 0 106 107" fill="none" xmlns="http://www.w3.org/2000/svg">
<g filter="url(#filter0_d_1_775)">
<rect x="20" y="12.2236" width="66" height="66" rx="24" fill="url(#paint0_linear_1_775)"/>
</g>
<path fill-rule="evenodd" clip-rule="evenodd" d="M43.9787 28.2236C41.7813 28.2236 40 30.005 40 32.2024V58.2449C40 60.4423 41.7813 62.2236 43.9787 62.2236H62.7872C64.9846 62.2236 66.766 60.4423 66.766 58.2449V32.2024C66.766 30.005 64.9846 28.2236 62.7872 28.2236H43.9787ZM46.8723 32.5641C45.474 32.5641 44.3404 33.6976 44.3404 35.096C44.3404 36.4943 45.474 37.6279 46.8723 37.6279C48.2707 37.6279 49.4043 36.4943 49.4043 35.096C49.4043 33.6976 48.2707 32.5641 46.8723 32.5641ZM44.3404 45.2236C44.3404 43.8253 45.474 42.6917 46.8723 42.6917C48.2707 42.6917 49.4043 43.8253 49.4043 45.2236C49.4043 46.622 48.2707 47.7555 46.8723 47.7555C45.474 47.7555 44.3404 46.622 44.3404 45.2236ZM46.8723 52.8194C45.474 52.8194 44.3404 53.953 44.3404 55.3513C44.3404 56.7496 45.474 57.8832 46.8723 57.8832C48.2707 57.8832 49.4043 56.7496 49.4043 55.3513C49.4043 53.953 48.2707 52.8194 46.8723 52.8194ZM54.1064 34.0109C53.5071 34.0109 53.0213 34.4967 53.0213 35.096C53.0213 35.6953 53.5071 36.1811 54.1064 36.1811H62.7872C63.3865 36.1811 63.8723 35.6953 63.8723 35.096C63.8723 34.4967 63.3865 34.0109 62.7872 34.0109H54.1064ZM53.0213 45.2236C53.0213 44.6244 53.5071 44.1385 54.1064 44.1385H62.7872C63.3865 44.1385 63.8723 44.6244 63.8723 45.2236C63.8723 45.8229 63.3865 46.3087 62.7872 46.3087H54.1064C53.5071 46.3087 53.0213 45.8229 53.0213 45.2236ZM54.1064 54.2662C53.5071 54.2662 53.0213 54.752 53.0213 55.3513C53.0213 55.9506 53.5071 56.4364 54.1064 56.4364H62.7872C63.3865 56.4364 63.8723 55.9506 63.8723 55.3513C63.8723 54.752 63.3865 54.2662 62.7872 54.2662H54.1064Z" fill="white"/>
<defs>
<filter id="filter0_d_1_775" x="0" y="0.223633" width="106" height="106" filterUnits="userSpaceOnUse" color-interpolation-filters="sRGB">
<feFlood flood-opacity="0" result="BackgroundImageFix"/>
<feColorMatrix in="SourceAlpha" type="matrix" values="0 0 0 0 0 0 0 0 0 0 0 0 0 0 0 0 0 0 127 0" result="hardAlpha"/>
<feMorphology radius="2" operator="erode" in="SourceAlpha" result="effect1_dropShadow_1_775"/>
<feOffset dy="8"/>
<feGaussianBlur stdDeviation="11"/>
<feColorMatrix type="matrix" values="0 0 0 0 0.971137 0 0 0 0 0.341921 0 0 0 0 0.36709 0 0 0 0.3 0"/>
<feBlend mode="normal" in2="BackgroundImageFix" result="effect1_dropShadow_1_775"/>
<feBlend mode="normal" in="SourceGraphic" in2="effect1_dropShadow_1_775" result="shape"/>
</filter>
<linearGradient id="paint0_linear_1_775" x1="33.5" y1="12.2236" x2="65" y2="78.2236" gradientUnits="userSpaceOnUse">
<stop stop-color="#FF858A"/>
<stop offset="1" stop-color="#F04148"/>
</linearGradient>
</defs>
</svg>
