<svg width="66" height="66" viewBox="0 0 66 66" fill="none" xmlns="http://www.w3.org/2000/svg">
<rect width="66" height="66" rx="24" fill="url(#paint0_linear_54_183)"/>
<path fill-rule="evenodd" clip-rule="evenodd" d="M27.6349 33.3045C31.1525 33.3045 34.0042 30.4528 34.0042 26.9352C34.0042 23.4176 31.1525 20.5659 27.6349 20.5659C24.1173 20.5659 21.2656 23.4176 21.2656 26.9352C21.2656 30.4528 24.1173 33.3045 27.6349 33.3045Z" fill="white"/>
<path fill-rule="evenodd" clip-rule="evenodd" d="M33.1641 32.5917C31.7321 33.9571 29.7827 34.7972 27.635 34.7972C25.4873 34.7972 23.5378 33.9571 22.1058 32.5917C21.8592 32.5306 21.6126 32.4701 21.3731 32.4396C21.1336 32.409 20.9019 32.409 20.6859 32.4424C20.4705 32.4751 20.2715 32.5419 20.0391 32.6251C19.8067 32.7075 19.5416 32.807 19.2098 33.0061C18.8786 33.2051 18.4799 33.5036 18.099 34.0019C17.7173 34.4987 17.3527 35.196 17.0208 36.0254C16.6889 36.8542 16.3905 37.8166 16.2249 38.7456C16.0593 39.6739 16.0259 40.5702 16.0095 41.2497C15.9925 41.9299 15.9925 42.3947 16.0593 42.8425C16.1254 43.2903 16.2576 43.721 16.5568 44.1525C16.8552 44.5839 17.3193 45.0154 17.8666 45.3466C18.4138 45.6785 19.0442 45.9109 19.9069 46.0268C20.769 46.1426 21.8635 46.1426 23.1903 46.1426H27.038H27.635H28.2319H32.0796C33.4064 46.1426 34.5009 46.1426 35.363 46.0268C36.2257 45.9109 36.8561 45.6785 37.4034 45.3466C37.9506 45.0154 38.4147 44.5839 38.7132 44.1525C39.0124 43.721 39.1445 43.2903 39.2106 42.8425C39.2774 42.3947 39.2774 41.9299 39.2604 41.2497C39.244 40.5702 39.2106 39.6739 39.045 38.7456C38.8795 37.8166 38.581 36.8542 38.2491 36.0254C37.9172 35.196 37.5526 34.4987 37.171 34.0019C36.79 33.5036 36.3913 33.2051 36.0602 33.0061C35.7283 32.807 35.4632 32.7075 35.2308 32.6251C34.9984 32.5419 34.7994 32.4751 34.5841 32.4424C34.368 32.409 34.1363 32.409 33.8968 32.4396C33.6573 32.4701 33.4107 32.5306 33.1641 32.5917Z" fill="white"/>
<path fill-rule="evenodd" clip-rule="evenodd" d="M34.4239 30.0739C35.5558 31.1074 37.063 31.7385 38.7166 31.7385C42.2333 31.7385 45.0843 28.8869 45.0843 25.3693C45.0843 21.8516 42.2333 19 38.7166 19C36.4583 19 34.4736 20.1763 33.3438 21.9497C34.6186 23.114 35.4187 24.7914 35.4187 26.6544C35.4187 27.9124 35.0535 29.0866 34.4239 30.0739Z" fill="white"/>
<path fill-rule="evenodd" clip-rule="evenodd" d="M43.8933 31.2606C42.5034 32.5848 40.6271 33.4157 38.5547 33.464L38.7836 33.7384C39.1654 34.2352 39.5301 34.9325 39.8621 35.762C40.1942 36.5907 40.4928 37.5531 40.6584 38.4821C40.8241 39.4104 40.8575 40.3067 40.8738 40.9862C40.8909 41.6664 40.8909 42.1312 40.8241 42.579C40.758 43.0268 40.6257 43.4576 40.3264 43.889C40.1039 44.2103 39.7896 44.5323 39.4178 44.8116H42.8084C44.1357 44.8116 45.2306 44.8116 46.093 44.6957C46.9561 44.5799 47.5867 44.3475 48.1342 44.0155C48.6816 43.6843 49.1459 43.2529 49.4445 42.8214C49.7438 42.39 49.876 41.9592 49.9421 41.5114C50.009 41.0637 50.009 40.5988 49.9919 39.9186C49.9755 39.2391 49.9421 38.3428 49.7765 37.4145C49.6108 36.4855 49.3122 35.5232 48.9802 34.6944C48.6482 33.8649 48.2835 33.1676 47.9017 32.6708C47.5206 32.1725 47.1218 31.874 46.7904 31.675C46.4584 31.476 46.1932 31.3765 45.9608 31.294C45.7283 31.2109 45.5292 31.1441 45.3138 31.1114C45.0976 31.078 44.8659 31.078 44.6263 31.1085C44.3867 31.1391 44.14 31.1995 43.8933 31.2606Z" fill="white"/>
<defs>
<linearGradient id="paint0_linear_54_183" x1="13.5" y1="2.86509e-07" x2="45" y2="66" gradientUnits="userSpaceOnUse">
<stop stop-color="#5CA1FE"/>
<stop offset="1" stop-color="#217BF4"/>
</linearGradient>
</defs>
</svg>
