<svg width="36" height="37" viewBox="0 0 36 37" fill="none" xmlns="http://www.w3.org/2000/svg">
<circle cx="18" cy="18.2236" r="18" fill="white"/>
<path d="M17.9542 10.4778C20.475 10.4778 20.75 10.4778 21.7583 10.5236C22.675 10.5695 23.1792 10.707 23.5 10.8445C23.9125 10.982 24.2792 11.257 24.6 11.532C24.9208 11.8528 25.15 12.2195 25.2875 12.632C25.425 12.9528 25.5625 13.457 25.6083 14.3736C25.6542 15.382 25.6542 15.657 25.6542 18.1778C25.6542 20.6986 25.6542 20.9736 25.6083 21.982C25.5625 22.8986 25.425 23.4028 25.2875 23.7236C24.9667 24.5486 24.325 25.1903 23.5 25.5111C23.1792 25.6486 22.675 25.7861 21.7583 25.832C20.75 25.8778 20.475 25.8778 17.9542 25.8778C15.4333 25.8778 15.1583 25.8778 14.15 25.832C13.2333 25.7861 12.7292 25.6486 12.4083 25.5111C11.9958 25.3736 11.6292 25.0986 11.3083 24.8236C10.9875 24.5028 10.7583 24.1361 10.6208 23.7236C10.4833 23.4028 10.3458 22.8986 10.3 21.982C10.2542 20.9736 10.2542 20.6986 10.2542 18.1778C10.2542 15.657 10.2542 15.382 10.3 14.3736C10.3458 13.457 10.4833 12.9528 10.6208 12.632C10.7583 12.2195 11.0333 11.8528 11.3083 11.532C11.6292 11.2111 11.9958 10.982 12.4083 10.8445C12.7292 10.707 13.2333 10.5695 14.15 10.5236C15.1583 10.4778 15.4792 10.4778 17.9542 10.4778ZM17.9542 8.78198C15.3875 8.78198 15.0667 8.78198 14.0583 8.82781C13.05 8.87365 12.3625 9.01115 11.7667 9.28614C11.1708 9.51531 10.6208 9.88198 10.1625 10.3403C9.70417 10.7986 9.29167 11.3945 9.0625 11.9903C8.83333 12.5861 8.65 13.2736 8.60417 14.282C8.55833 15.2903 8.55833 15.6111 8.55833 18.1778C8.55833 20.7445 8.55833 21.0653 8.60417 22.0736C8.65 23.082 8.7875 23.7695 9.0625 24.3653C9.29167 24.9611 9.65833 25.557 10.1625 26.0153C10.6208 26.4736 11.2167 26.8861 11.8125 27.1153C12.4083 27.3445 13.0958 27.5278 14.1042 27.5736C15.1125 27.6195 15.4333 27.6195 18 27.6195C20.5667 27.6195 20.8875 27.6195 21.8958 27.5736C22.9042 27.5278 23.5917 27.3903 24.1875 27.1153C25.4708 26.6111 26.4333 25.6486 26.9375 24.3653C27.1667 23.7695 27.35 23.082 27.3958 22.0736C27.4417 21.0653 27.4417 20.7445 27.4417 18.1778C27.4417 15.6111 27.4417 15.2903 27.3958 14.282C27.35 13.2736 27.2125 12.5861 26.9375 11.9903C26.7083 11.3486 26.3417 10.7986 25.8375 10.3403C25.3792 9.88198 24.7833 9.46948 24.1875 9.24031C23.5917 9.01115 22.9042 8.82781 21.8958 8.78198C20.8417 8.78198 20.5208 8.78198 17.9542 8.78198Z" fill="#2B2B39"/>
<path d="M17.9529 13.3653C15.2945 13.3653 13.1404 15.5195 13.1404 18.1778C13.1404 20.8361 15.2945 22.9903 17.9529 22.9903C20.6112 22.9903 22.7654 20.8361 22.7654 18.1778C22.8112 15.5195 20.657 13.3653 17.9529 13.3653ZM17.9529 21.3403C16.2112 21.3403 14.8362 19.9195 14.8362 18.2236C14.8362 16.482 16.257 15.107 17.9529 15.107C19.6945 15.107 21.0695 16.5278 21.0695 18.2236C21.1154 19.9195 19.6945 21.3403 17.9529 21.3403Z" fill="#2B2B39"/>
<path d="M22.9971 14.3278C23.63 14.3278 24.143 13.8148 24.143 13.182C24.143 12.5491 23.63 12.0361 22.9971 12.0361C22.3643 12.0361 21.8513 12.5491 21.8513 13.182C21.8513 13.8148 22.3643 14.3278 22.9971 14.3278Z" fill="#2B2B39"/>
</svg>
