<svg width="36" height="37" viewBox="0 0 36 37" fill="none" xmlns="http://www.w3.org/2000/svg">
<circle cx="18" cy="18.2236" r="18" fill="white"/>
<path d="M11.5678 13.8209C12.6755 13.8209 13.5734 12.9229 13.5734 11.8152C13.5734 10.7075 12.6755 9.80955 11.5678 9.80955C10.4601 9.80955 9.56209 10.7075 9.56209 11.8152C9.56209 12.9229 10.4601 13.8209 11.5678 13.8209Z" fill="#2B2B39"/>
<path d="M15.4661 15.3407V26.4682H18.921V20.9654C18.921 19.5134 19.1942 18.1072 20.9945 18.1072C22.7701 18.1072 22.7921 19.7673 22.7921 21.0571V26.4691H26.2489V20.3668C26.2489 17.3693 25.6035 15.0657 22.1 15.0657C20.4179 15.0657 19.2904 15.9888 18.8294 16.8624H18.7826V15.3407H15.4661ZM9.83594 15.3407H13.2964V26.4682H9.83594V15.3407Z" fill="#2B2B39"/>
</svg>
