<svg width="36" height="37" viewBox="0 0 36 37" fill="none" xmlns="http://www.w3.org/2000/svg">
<circle cx="18" cy="18.2236" r="18" fill="white"/>
<path d="M25.7627 12.3542C26.623 11.8385 27.2836 11.022 27.5947 10.0492C26.7897 10.5266 25.898 10.8733 24.9489 11.0602C24.1889 10.2505 23.1061 9.74445 21.9078 9.74445C19.6067 9.74445 17.7412 11.6099 17.7412 13.9108C17.7412 14.2373 17.7781 14.5553 17.8491 14.8603C14.3864 14.6865 11.3163 13.0278 9.2614 10.5071C8.90276 11.1225 8.6973 11.8382 8.6973 12.6017C8.6973 14.0472 9.43292 15.3225 10.5509 16.0696C9.86784 16.048 9.22545 15.8606 8.66365 15.5485C8.66335 15.5659 8.66335 15.5833 8.66335 15.6009C8.66335 17.6196 10.0995 19.3035 12.0055 19.6863C11.6559 19.7815 11.2878 19.8324 10.9078 19.8324C10.6393 19.8324 10.3783 19.8063 10.124 19.7576C10.6541 21.4129 12.1928 22.6175 14.016 22.6512C12.5901 23.7686 10.7935 24.4347 8.84155 24.4347C8.50528 24.4347 8.17361 24.415 7.84766 24.3765C9.69149 25.5586 11.8816 26.2484 14.2345 26.2484C21.898 26.2484 26.0887 19.8997 26.0887 14.3939C26.0887 14.2133 26.0847 14.0336 26.0767 13.8549C26.8907 13.2675 27.5971 12.5337 28.1557 11.6981C27.4085 12.0295 26.6055 12.2535 25.7627 12.3542Z" fill="#2B2B39"/>
</svg>
